<?xml version="1.0"?>
<svg xmlns="http://www.w3.org/2000/svg" xmlns:xlink="http://www.w3.org/1999/xlink" viewBox="0 0 223.600000 112.000000" width="111.800000mm" height="56.000000mm" version="1.1">
<a xlink:href="dflda-0x600001c847e0.svg">
<rect x="0.000000" y="0.000000" width="222.600000" height="111.000000" rx="0" ry="0" style="stroke:#000000;fill:#FFFFFF;"/>
</a>
<text x="10.000000" y="7.000000" font-family="Verdana" font-size="7"></text>
<polygon fill="#ffffff" stroke="black" stroke-width=".25" points="99.800003,20.500000 108.800003,24.000000 99.800003,27.500000"/>
<circle  fill="#ffffff" stroke="black" stroke-width=".25" cx="110.300003" cy="24.000000" r="1.500000"/>
<a xlink:href="dfld-0x600001c842d0.svg">
<rect x="60.000000" y="32.000000" width="51.600000" height="24.000000" rx="0" ry="0" style="stroke:#000000;fill:#FFFFFF;"/>
</a>
<a xlink:href="dfld-0x600001c842d0.svg">
<text x="85.800000" y="46.000000" font-family="Verdana" font-size="7" text-anchor="middle" fill="#000000">dfld(1)(1)</text>
</a>
<circle cx="62.000000" cy="34.000000" r="1"/>
<line x1="57.000000" y1="43.000000" x2="60.000000" y2="44.000000"  transform="rotate(0.000000,60.000000,44.000000)" style="stroke: black; stroke-width:0.25;"/>
<line x1="57.000000" y1="45.000000" x2="60.000000" y2="44.000000"  transform="rotate(0.000000,60.000000,44.000000)" style="stroke: black; stroke-width:0.25;"/>
<rect x="73.800000" y="64.000000" width="24.000000" height="24.000000" rx="0" ry="0" style="stroke:#000000;fill:#FFFFFF;"/>
<text x="85.800000" y="78.000000" font-family="Verdana" font-size="7" text-anchor="middle" fill="#000000">0</text>
<circle cx="75.800000" cy="66.000000" r="1"/>
<rect x="127.600000" y="48.000000" width="24.000000" height="24.000000" rx="0" ry="0" style="stroke:#000000;fill:#FFFFFF;"/>
<text x="139.600000" y="62.000000" font-family="Verdana" font-size="7" text-anchor="middle" fill="#000000">*</text>
<circle cx="129.600000" cy="50.000000" r="1"/>
<line x1="124.600000" y1="55.000000" x2="127.600000" y2="56.000000"  transform="rotate(0.000000,127.600000,56.000000)" style="stroke: black; stroke-width:0.25;"/>
<line x1="124.600000" y1="57.000000" x2="127.600000" y2="56.000000"  transform="rotate(0.000000,127.600000,56.000000)" style="stroke: black; stroke-width:0.25;"/>
<line x1="124.600000" y1="63.000000" x2="127.600000" y2="64.000000"  transform="rotate(0.000000,127.600000,64.000000)" style="stroke: black; stroke-width:0.25;"/>
<line x1="124.600000" y1="65.000000" x2="127.600000" y2="64.000000"  transform="rotate(0.000000,127.600000,64.000000)" style="stroke: black; stroke-width:0.25;"/>
<rect x="167.600000" y="44.000000" width="24.000000" height="24.000000" rx="0" ry="0" style="stroke:#000000;fill:#FFFFFF;"/>
<text x="179.600000" y="58.000000" font-family="Verdana" font-size="7" text-anchor="middle" fill="#000000">+</text>
<circle cx="169.600000" cy="46.000000" r="1"/>
<line x1="164.600000" y1="51.000000" x2="167.600000" y2="52.000000"  transform="rotate(0.000000,167.600000,52.000000)" style="stroke: black; stroke-width:0.25;"/>
<line x1="164.600000" y1="53.000000" x2="167.600000" y2="52.000000"  transform="rotate(0.000000,167.600000,52.000000)" style="stroke: black; stroke-width:0.25;"/>
<line x1="164.600000" y1="59.000000" x2="167.600000" y2="60.000000"  transform="rotate(0.000000,167.600000,60.000000)" style="stroke: black; stroke-width:0.25;"/>
<line x1="164.600000" y1="61.000000" x2="167.600000" y2="60.000000"  transform="rotate(0.000000,167.600000,60.000000)" style="stroke: black; stroke-width:0.25;"/>
<line x1="15.000000" y1="15.000000" x2="15.000000" y2="97.000000"  style="stroke: black; stroke-linecap:round; stroke-width:0.25; stroke-dasharray:3,3;"/>
<line x1="15.000000" y1="97.000000" x2="208.600000" y2="97.000000"  style="stroke: black; stroke-linecap:round; stroke-width:0.25; stroke-dasharray:3,3;"/>
<line x1="208.600000" y1="97.000000" x2="208.600000" y2="15.000000"  style="stroke: black; stroke-linecap:round; stroke-width:0.25; stroke-dasharray:3,3;"/>
<line x1="15.000000" y1="15.000000" x2="20.000000" y2="15.000000"  style="stroke: black; stroke-linecap:round; stroke-width:0.25; stroke-dasharray:3,3;"/>
<line x1="55.475000" y1="15.000000" x2="208.600000" y2="15.000000"  style="stroke: black; stroke-linecap:round; stroke-width:0.25; stroke-dasharray:3,3;"/>
<text x="20.000000" y="17.000000" font-family="Verdana" font-size="7">apf(1)(1)</text>
<line x1="210.600000" y1="55.000000" x2="213.600000" y2="56.000000"  transform="rotate(0.000000,213.600000,56.000000)" style="stroke: black; stroke-width:0.25;"/>
<line x1="210.600000" y1="57.000000" x2="213.600000" y2="56.000000"  transform="rotate(0.000000,213.600000,56.000000)" style="stroke: black; stroke-width:0.25;"/>
<line x1="10.000000" y1="56.000000" x2="20.000000" y2="56.000000"  style="stroke:black; stroke-linecap:round; stroke-width:0.25;"/>
<line x1="20.000000" y1="56.000000" x2="24.000000" y2="56.000000"  style="stroke:black; stroke-linecap:round; stroke-width:0.25;"/>
<line x1="24.000000" y1="56.000000" x2="28.000000" y2="56.000000"  style="stroke:black; stroke-linecap:round; stroke-width:0.25;"/>
<line x1="28.000000" y1="56.000000" x2="28.000000" y2="56.000000"  style="stroke:black; stroke-linecap:round; stroke-width:0.25;"/>
<line x1="28.000000" y1="56.000000" x2="32.000000" y2="56.000000"  style="stroke:black; stroke-linecap:round; stroke-width:0.25;"/>
<line x1="32.000000" y1="56.000000" x2="36.000000" y2="56.000000"  style="stroke:black; stroke-linecap:round; stroke-width:0.25;"/>
<line x1="36.000000" y1="56.000000" x2="56.000000" y2="24.000000"  style="stroke:black; stroke-linecap:round; stroke-width:0.25;"/>
<line x1="36.000000" y1="56.000000" x2="56.000000" y2="44.000000"  style="stroke:black; stroke-linecap:round; stroke-width:0.25;"/>
<line x1="56.000000" y1="24.000000" x2="95.800000" y2="24.000000"  style="stroke:black; stroke-linecap:round; stroke-width:0.25;"/>
<line x1="56.000000" y1="44.000000" x2="60.000000" y2="44.000000"  style="stroke:black; stroke-linecap:round; stroke-width:0.25;"/>
<line x1="95.800000" y1="24.000000" x2="99.800000" y2="24.000000"  style="stroke:black; stroke-linecap:round; stroke-width:0.25;"/>
<line x1="97.800000" y1="76.000000" x2="101.800000" y2="76.000000"  style="stroke:black; stroke-linecap:round; stroke-width:0.25;"/>
<line x1="101.800000" y1="76.000000" x2="115.600000" y2="76.000000"  style="stroke:black; stroke-linecap:round; stroke-width:0.25;"/>
<line x1="111.600000" y1="44.000000" x2="115.600000" y2="44.000000"  style="stroke:black; stroke-linecap:round; stroke-width:0.25;"/>
<line x1="111.800000" y1="24.000000" x2="115.800000" y2="24.000000"  style="stroke:black; stroke-linecap:round; stroke-width:0.25;"/>
<line x1="115.600000" y1="44.000000" x2="123.600000" y2="44.000000"  style="stroke:black; stroke-linecap:round; stroke-width:0.25;"/>
<line x1="115.600000" y1="64.000000" x2="123.600000" y2="64.000000"  style="stroke:black; stroke-linecap:round; stroke-width:0.25;"/>
<line x1="115.600000" y1="76.000000" x2="115.600000" y2="64.000000"  style="stroke:black; stroke-linecap:round; stroke-width:0.25;"/>
<line x1="115.600000" y1="76.000000" x2="115.600000" y2="76.000000"  style="stroke:black; stroke-linecap:round; stroke-width:0.25;"/>
<line x1="115.800000" y1="24.000000" x2="155.600000" y2="24.000000"  style="stroke:black; stroke-linecap:round; stroke-width:0.25;"/>
<line x1="123.600000" y1="44.000000" x2="123.600000" y2="56.000000"  style="stroke:black; stroke-linecap:round; stroke-width:0.25;"/>
<line x1="123.600000" y1="56.000000" x2="123.600000" y2="56.000000"  style="stroke:black; stroke-linecap:round; stroke-width:0.25;"/>
<line x1="123.600000" y1="56.000000" x2="127.600000" y2="56.000000"  style="stroke:black; stroke-linecap:round; stroke-width:0.25;"/>
<line x1="123.600000" y1="64.000000" x2="127.600000" y2="64.000000"  style="stroke:black; stroke-linecap:round; stroke-width:0.25;"/>
<line x1="151.600000" y1="60.000000" x2="155.600000" y2="60.000000"  style="stroke:black; stroke-linecap:round; stroke-width:0.25;"/>
<line x1="155.600000" y1="24.000000" x2="163.600000" y2="24.000000"  style="stroke:black; stroke-linecap:round; stroke-width:0.25;"/>
<line x1="155.600000" y1="60.000000" x2="163.600000" y2="60.000000"  style="stroke:black; stroke-linecap:round; stroke-width:0.25;"/>
<line x1="163.600000" y1="24.000000" x2="163.600000" y2="52.000000"  style="stroke:black; stroke-linecap:round; stroke-width:0.25;"/>
<line x1="163.600000" y1="52.000000" x2="163.600000" y2="52.000000"  style="stroke:black; stroke-linecap:round; stroke-width:0.25;"/>
<line x1="163.600000" y1="52.000000" x2="167.600000" y2="52.000000"  style="stroke:black; stroke-linecap:round; stroke-width:0.25;"/>
<line x1="163.600000" y1="60.000000" x2="167.600000" y2="60.000000"  style="stroke:black; stroke-linecap:round; stroke-width:0.25;"/>
<line x1="191.600000" y1="56.000000" x2="195.600000" y2="56.000000"  style="stroke:black; stroke-linecap:round; stroke-width:0.25;"/>
<line x1="195.600000" y1="56.000000" x2="195.600000" y2="56.000000"  style="stroke:black; stroke-linecap:round; stroke-width:0.25;"/>
<line x1="195.600000" y1="56.000000" x2="199.600000" y2="56.000000"  style="stroke:black; stroke-linecap:round; stroke-width:0.25;"/>
<line x1="199.600000" y1="56.000000" x2="203.600000" y2="56.000000"  style="stroke:black; stroke-linecap:round; stroke-width:0.25;"/>
<line x1="203.600000" y1="56.000000" x2="213.600000" y2="56.000000"  style="stroke:black; stroke-linecap:round; stroke-width:0.25;"/>
</svg>
