<?xml version="1.0"?>
<svg xmlns="http://www.w3.org/2000/svg" xmlns:xlink="http://www.w3.org/1999/xlink" viewBox="0 0 219.600000 144.000000" width="109.800000mm" height="72.000000mm" version="1.1">
<rect x="0.000000" y="0.000000" width="218.600000" height="143.000000" rx="0" ry="0" style="stroke:#000000;fill:#FFFFFF;"/>
<text x="10.000000" y="7.000000" font-family="Verdana" font-size="7"></text>
<rect x="61.800000" y="64.000000" width="24.000000" height="24.000000" rx="0" ry="0" style="stroke:#000000;fill:#FFFFFF;"/>
<text x="73.800000" y="78.000000" font-family="Verdana" font-size="7" text-anchor="middle" fill="#000000">+</text>
<circle cx="63.800000" cy="66.000000" r="1"/>
<line x1="58.800000" y1="71.000000" x2="61.800000" y2="72.000000"  transform="rotate(0.000000,61.800000,72.000000)" style="stroke: black; stroke-width:0.25;"/>
<line x1="58.800000" y1="73.000000" x2="61.800000" y2="72.000000"  transform="rotate(0.000000,61.800000,72.000000)" style="stroke: black; stroke-width:0.25;"/>
<line x1="58.800000" y1="79.000000" x2="61.800000" y2="80.000000"  transform="rotate(0.000000,61.800000,80.000000)" style="stroke: black; stroke-width:0.25;"/>
<line x1="58.800000" y1="81.000000" x2="61.800000" y2="80.000000"  transform="rotate(0.000000,61.800000,80.000000)" style="stroke: black; stroke-width:0.25;"/>
<rect x="61.800000" y="96.000000" width="24.000000" height="24.000000" rx="0" ry="0" style="stroke:#000000;fill:#FFFFFF;"/>
<text x="73.800000" y="110.000000" font-family="Verdana" font-size="7" text-anchor="middle" fill="#000000">0</text>
<circle cx="63.800000" cy="98.000000" r="1"/>
<rect x="101.800000" y="80.000000" width="24.000000" height="24.000000" rx="0" ry="0" style="stroke:#000000;fill:#FFFFFF;"/>
<text x="113.800000" y="94.000000" font-family="Verdana" font-size="7" text-anchor="middle" fill="#000000">@</text>
<circle cx="103.800000" cy="82.000000" r="1"/>
<line x1="98.800000" y1="87.000000" x2="101.800000" y2="88.000000"  transform="rotate(0.000000,101.800000,88.000000)" style="stroke: black; stroke-width:0.25;"/>
<line x1="98.800000" y1="89.000000" x2="101.800000" y2="88.000000"  transform="rotate(0.000000,101.800000,88.000000)" style="stroke: black; stroke-width:0.25;"/>
<line x1="98.800000" y1="95.000000" x2="101.800000" y2="96.000000"  transform="rotate(0.000000,101.800000,96.000000)" style="stroke: black; stroke-width:0.25;"/>
<line x1="98.800000" y1="97.000000" x2="101.800000" y2="96.000000"  transform="rotate(0.000000,101.800000,96.000000)" style="stroke: black; stroke-width:0.25;"/>
<rect x="88.000000" y="24.000000" width="51.600000" height="24.000000" rx="0" ry="0" style="stroke:#000000;fill:#FFFFFF;"/>
<text x="113.800000" y="38.000000" font-family="Verdana" font-size="7" text-anchor="middle" fill="#000000">0.70710677f</text>
<circle cx="137.600000" cy="46.000000" r="1"/>
<rect x="48.000000" y="28.000000" width="24.000000" height="24.000000" rx="0" ry="0" style="stroke:#000000;fill:#FFFFFF;"/>
<text x="60.000000" y="42.000000" font-family="Verdana" font-size="7" text-anchor="middle" fill="#000000">*</text>
<circle cx="70.000000" cy="50.000000" r="1"/>
<line x1="75.000000" y1="43.000000" x2="72.000000" y2="44.000000"  transform="rotate(0.000000,72.000000,44.000000)" style="stroke: black; stroke-width:0.25;"/>
<line x1="75.000000" y1="45.000000" x2="72.000000" y2="44.000000"  transform="rotate(0.000000,72.000000,44.000000)" style="stroke: black; stroke-width:0.25;"/>
<line x1="75.000000" y1="35.000000" x2="72.000000" y2="36.000000"  transform="rotate(0.000000,72.000000,36.000000)" style="stroke: black; stroke-width:0.25;"/>
<line x1="75.000000" y1="37.000000" x2="72.000000" y2="36.000000"  transform="rotate(0.000000,72.000000,36.000000)" style="stroke: black; stroke-width:0.25;"/>
<line x1="141.600000" y1="92.000000" x2="141.600000" y2="88.000000"  style="stroke:black; stroke-linecap:round; stroke-width:0.25;"/>
<line x1="141.600000" y1="88.000000" x2="145.600000" y2="88.000000"  style="stroke:black; stroke-linecap:round; stroke-width:0.25;"/>
<line x1="145.600000" y1="88.000000" x2="145.600000" y2="92.000000"  style="stroke:black; stroke-linecap:round; stroke-width:0.25;"/>
<rect x="163.600000" y="60.000000" width="24.000000" height="24.000000" rx="0" ry="0" style="stroke:#000000;fill:#FFFFFF;"/>
<text x="175.600000" y="74.000000" font-family="Verdana" font-size="7" text-anchor="middle" fill="#000000">mem</text>
<circle cx="165.600000" cy="62.000000" r="1"/>
<line x1="160.600000" y1="71.000000" x2="163.600000" y2="72.000000"  transform="rotate(0.000000,163.600000,72.000000)" style="stroke: black; stroke-width:0.25;"/>
<line x1="160.600000" y1="73.000000" x2="163.600000" y2="72.000000"  transform="rotate(0.000000,163.600000,72.000000)" style="stroke: black; stroke-width:0.25;"/>
<line x1="15.000000" y1="15.000000" x2="15.000000" y2="129.000000"  style="stroke: black; stroke-linecap:round; stroke-width:0.25; stroke-dasharray:3,3;"/>
<line x1="15.000000" y1="129.000000" x2="204.600000" y2="129.000000"  style="stroke: black; stroke-linecap:round; stroke-width:0.25; stroke-dasharray:3,3;"/>
<line x1="204.600000" y1="129.000000" x2="204.600000" y2="15.000000"  style="stroke: black; stroke-linecap:round; stroke-width:0.25; stroke-dasharray:3,3;"/>
<line x1="15.000000" y1="15.000000" x2="20.000000" y2="15.000000"  style="stroke: black; stroke-linecap:round; stroke-width:0.25; stroke-dasharray:3,3;"/>
<line x1="49.025000" y1="15.000000" x2="204.600000" y2="15.000000"  style="stroke: black; stroke-linecap:round; stroke-width:0.25; stroke-dasharray:3,3;"/>
<text x="20.000000" y="17.000000" font-family="Verdana" font-size="7">process</text>
<line x1="206.600000" y1="71.000000" x2="209.600000" y2="72.000000"  transform="rotate(0.000000,209.600000,72.000000)" style="stroke: black; stroke-width:0.25;"/>
<line x1="206.600000" y1="73.000000" x2="209.600000" y2="72.000000"  transform="rotate(0.000000,209.600000,72.000000)" style="stroke: black; stroke-width:0.25;"/>
<line x1="10.000000" y1="72.000000" x2="20.000000" y2="72.000000"  style="stroke:black; stroke-linecap:round; stroke-width:0.25;"/>
<line x1="20.000000" y1="72.000000" x2="24.000000" y2="72.000000"  style="stroke:black; stroke-linecap:round; stroke-width:0.25;"/>
<line x1="24.000000" y1="72.000000" x2="28.000000" y2="72.000000"  style="stroke:black; stroke-linecap:round; stroke-width:0.25;"/>
<line x1="28.000000" y1="72.000000" x2="36.000000" y2="72.000000"  style="stroke:black; stroke-linecap:round; stroke-width:0.25;"/>
<line x1="36.000000" y1="72.000000" x2="36.000000" y2="80.000000"  style="stroke:black; stroke-linecap:round; stroke-width:0.25;"/>
<line x1="36.000000" y1="80.000000" x2="36.000000" y2="80.000000"  style="stroke:black; stroke-linecap:round; stroke-width:0.25;"/>
<line x1="36.000000" y1="80.000000" x2="44.000000" y2="80.000000"  style="stroke:black; stroke-linecap:round; stroke-width:0.25;"/>
<line x1="44.000000" y1="40.000000" x2="44.000000" y2="40.000000"  style="stroke:black; stroke-linecap:round; stroke-width:0.25;"/>
<line x1="44.000000" y1="40.000000" x2="44.000000" y2="72.000000"  style="stroke:black; stroke-linecap:round; stroke-width:0.25;"/>
<line x1="44.000000" y1="72.000000" x2="44.000000" y2="72.000000"  style="stroke:black; stroke-linecap:round; stroke-width:0.25;"/>
<line x1="44.000000" y1="72.000000" x2="57.800000" y2="72.000000"  style="stroke:black; stroke-linecap:round; stroke-width:0.25;"/>
<line x1="44.000000" y1="80.000000" x2="57.800000" y2="80.000000"  style="stroke:black; stroke-linecap:round; stroke-width:0.25;"/>
<line x1="48.000000" y1="40.000000" x2="44.000000" y2="40.000000"  style="stroke:black; stroke-linecap:round; stroke-width:0.25;"/>
<line x1="57.800000" y1="72.000000" x2="61.800000" y2="72.000000"  style="stroke:black; stroke-linecap:round; stroke-width:0.25;"/>
<line x1="57.800000" y1="80.000000" x2="61.800000" y2="80.000000"  style="stroke:black; stroke-linecap:round; stroke-width:0.25;"/>
<line x1="76.000000" y1="36.000000" x2="72.000000" y2="36.000000"  style="stroke:black; stroke-linecap:round; stroke-width:0.25;"/>
<line x1="76.000000" y1="44.000000" x2="72.000000" y2="44.000000"  style="stroke:black; stroke-linecap:round; stroke-width:0.25;"/>
<line x1="76.000000" y1="44.000000" x2="76.000000" y2="44.000000"  style="stroke:black; stroke-linecap:round; stroke-width:0.25;"/>
<line x1="76.000000" y1="56.000000" x2="76.000000" y2="44.000000"  style="stroke:black; stroke-linecap:round; stroke-width:0.25;"/>
<line x1="84.000000" y1="36.000000" x2="76.000000" y2="36.000000"  style="stroke:black; stroke-linecap:round; stroke-width:0.25;"/>
<line x1="84.000000" y1="56.000000" x2="76.000000" y2="56.000000"  style="stroke:black; stroke-linecap:round; stroke-width:0.25;"/>
<line x1="85.800000" y1="76.000000" x2="89.800000" y2="76.000000"  style="stroke:black; stroke-linecap:round; stroke-width:0.25;"/>
<line x1="85.800000" y1="108.000000" x2="89.800000" y2="108.000000"  style="stroke:black; stroke-linecap:round; stroke-width:0.25;"/>
<line x1="88.000000" y1="36.000000" x2="84.000000" y2="36.000000"  style="stroke:black; stroke-linecap:round; stroke-width:0.25;"/>
<line x1="89.800000" y1="76.000000" x2="97.800000" y2="76.000000"  style="stroke:black; stroke-linecap:round; stroke-width:0.25;"/>
<line x1="89.800000" y1="96.000000" x2="97.800000" y2="96.000000"  style="stroke:black; stroke-linecap:round; stroke-width:0.25;"/>
<line x1="89.800000" y1="108.000000" x2="89.800000" y2="96.000000"  style="stroke:black; stroke-linecap:round; stroke-width:0.25;"/>
<line x1="89.800000" y1="108.000000" x2="89.800000" y2="108.000000"  style="stroke:black; stroke-linecap:round; stroke-width:0.25;"/>
<line x1="97.800000" y1="76.000000" x2="97.800000" y2="88.000000"  style="stroke:black; stroke-linecap:round; stroke-width:0.25;"/>
<line x1="97.800000" y1="88.000000" x2="97.800000" y2="88.000000"  style="stroke:black; stroke-linecap:round; stroke-width:0.25;"/>
<line x1="97.800000" y1="88.000000" x2="101.800000" y2="88.000000"  style="stroke:black; stroke-linecap:round; stroke-width:0.25;"/>
<line x1="97.800000" y1="96.000000" x2="101.800000" y2="96.000000"  style="stroke:black; stroke-linecap:round; stroke-width:0.25;"/>
<line x1="113.800000" y1="56.000000" x2="84.000000" y2="56.000000"  style="stroke:black; stroke-linecap:round; stroke-width:0.25;"/>
<line x1="125.800000" y1="92.000000" x2="129.800000" y2="92.000000"  style="stroke:black; stroke-linecap:round; stroke-width:0.25;"/>
<line x1="129.800000" y1="92.000000" x2="143.600000" y2="92.000000"  style="stroke:black; stroke-linecap:round; stroke-width:0.25;"/>
<line x1="143.600000" y1="56.000000" x2="113.800000" y2="56.000000"  style="stroke:black; stroke-linecap:round; stroke-width:0.25;"/>
<line x1="143.600000" y1="56.000000" x2="143.600000" y2="56.000000"  style="stroke:black; stroke-linecap:round; stroke-width:0.25;"/>
<line x1="143.600000" y1="88.000000" x2="143.600000" y2="56.000000"  style="stroke:black; stroke-linecap:round; stroke-width:0.25;"/>
<line x1="143.600000" y1="92.000000" x2="145.600000" y2="92.000000"  style="stroke:black; stroke-linecap:round; stroke-width:0.25;"/>
<line x1="145.600000" y1="92.000000" x2="151.600000" y2="92.000000"  style="stroke:black; stroke-linecap:round; stroke-width:0.25;"/>
<line x1="151.600000" y1="72.000000" x2="159.600000" y2="72.000000"  style="stroke:black; stroke-linecap:round; stroke-width:0.25;"/>
<line x1="151.600000" y1="92.000000" x2="151.600000" y2="72.000000"  style="stroke:black; stroke-linecap:round; stroke-width:0.25;"/>
<line x1="151.600000" y1="92.000000" x2="151.600000" y2="92.000000"  style="stroke:black; stroke-linecap:round; stroke-width:0.25;"/>
<line x1="159.600000" y1="72.000000" x2="163.600000" y2="72.000000"  style="stroke:black; stroke-linecap:round; stroke-width:0.25;"/>
<line x1="187.600000" y1="72.000000" x2="191.600000" y2="72.000000"  style="stroke:black; stroke-linecap:round; stroke-width:0.25;"/>
<line x1="191.600000" y1="72.000000" x2="191.600000" y2="72.000000"  style="stroke:black; stroke-linecap:round; stroke-width:0.25;"/>
<line x1="191.600000" y1="72.000000" x2="195.600000" y2="72.000000"  style="stroke:black; stroke-linecap:round; stroke-width:0.25;"/>
<line x1="195.600000" y1="72.000000" x2="199.600000" y2="72.000000"  style="stroke:black; stroke-linecap:round; stroke-width:0.25;"/>
<line x1="199.600000" y1="72.000000" x2="209.600000" y2="72.000000"  style="stroke:black; stroke-linecap:round; stroke-width:0.25;"/>
</svg>
