<?xml version="1.0"?>
<svg xmlns="http://www.w3.org/2000/svg" xmlns:xlink="http://www.w3.org/1999/xlink" viewBox="0 0 301.900000 112.000000" width="150.950000mm" height="56.000000mm" version="1.1">
<a xlink:href="process.svg">
<rect x="0.000000" y="0.000000" width="300.900000" height="111.000000" rx="0" ry="0" style="stroke:#000000;fill:#FFFFFF;"/>
</a>
<text x="10.000000" y="7.000000" font-family="Verdana" font-size="7"></text>
<rect x="48.000000" y="64.000000" width="24.000000" height="24.000000" rx="0" ry="0" style="stroke:#000000;fill:#FFFFFF;"/>
<text x="60.000000" y="78.000000" font-family="Verdana" font-size="7" text-anchor="middle" fill="#000000">+</text>
<circle cx="50.000000" cy="66.000000" r="1"/>
<line x1="45.000000" y1="71.000000" x2="48.000000" y2="72.000000"  transform="rotate(0.000000,48.000000,72.000000)" style="stroke: black; stroke-width:0.25;"/>
<line x1="45.000000" y1="73.000000" x2="48.000000" y2="72.000000"  transform="rotate(0.000000,48.000000,72.000000)" style="stroke: black; stroke-width:0.25;"/>
<line x1="45.000000" y1="79.000000" x2="48.000000" y2="80.000000"  transform="rotate(0.000000,48.000000,80.000000)" style="stroke: black; stroke-width:0.25;"/>
<line x1="45.000000" y1="81.000000" x2="48.000000" y2="80.000000"  transform="rotate(0.000000,48.000000,80.000000)" style="stroke: black; stroke-width:0.25;"/>
<a xlink:href="delay-0x6000017e9dd0.svg">
<rect x="80.000000" y="64.000000" width="141.900000" height="24.000000" rx="0" ry="0" style="stroke:#000000;fill:#FFFFFF;"/>
</a>
<a xlink:href="delay-0x6000017e9dd0.svg">
<text x="150.950000" y="78.000000" font-family="Verdana" font-size="7" text-anchor="middle" fill="#000000">delay(1.92e+0...: max) : min)(0)</text>
</a>
<circle cx="82.000000" cy="66.000000" r="1"/>
<line x1="77.000000" y1="75.000000" x2="80.000000" y2="76.000000"  transform="rotate(0.000000,80.000000,76.000000)" style="stroke: black; stroke-width:0.25;"/>
<line x1="77.000000" y1="77.000000" x2="80.000000" y2="76.000000"  transform="rotate(0.000000,80.000000,76.000000)" style="stroke: black; stroke-width:0.25;"/>
<rect x="129.150000" y="24.000000" width="51.600000" height="24.000000" rx="0" ry="0" style="stroke:#000000;fill:#FFFFFF;"/>
<text x="154.950000" y="38.000000" font-family="Verdana" font-size="7" text-anchor="middle" fill="#000000">0.70710677f</text>
<circle cx="178.750000" cy="46.000000" r="1"/>
<rect x="89.150000" y="28.000000" width="24.000000" height="24.000000" rx="0" ry="0" style="stroke:#000000;fill:#FFFFFF;"/>
<text x="101.150000" y="42.000000" font-family="Verdana" font-size="7" text-anchor="middle" fill="#000000">*</text>
<circle cx="111.150000" cy="50.000000" r="1"/>
<line x1="116.150000" y1="43.000000" x2="113.150000" y2="44.000000"  transform="rotate(0.000000,113.150000,44.000000)" style="stroke: black; stroke-width:0.25;"/>
<line x1="116.150000" y1="45.000000" x2="113.150000" y2="44.000000"  transform="rotate(0.000000,113.150000,44.000000)" style="stroke: black; stroke-width:0.25;"/>
<line x1="116.150000" y1="35.000000" x2="113.150000" y2="36.000000"  transform="rotate(0.000000,113.150000,36.000000)" style="stroke: black; stroke-width:0.25;"/>
<line x1="116.150000" y1="37.000000" x2="113.150000" y2="36.000000"  transform="rotate(0.000000,113.150000,36.000000)" style="stroke: black; stroke-width:0.25;"/>
<line x1="223.900000" y1="76.000000" x2="223.900000" y2="72.000000"  style="stroke:black; stroke-linecap:round; stroke-width:0.25;"/>
<line x1="223.900000" y1="72.000000" x2="227.900000" y2="72.000000"  style="stroke:black; stroke-linecap:round; stroke-width:0.25;"/>
<line x1="227.900000" y1="72.000000" x2="227.900000" y2="76.000000"  style="stroke:black; stroke-linecap:round; stroke-width:0.25;"/>
<rect x="245.900000" y="44.000000" width="24.000000" height="24.000000" rx="0" ry="0" style="stroke:#000000;fill:#FFFFFF;"/>
<text x="257.900000" y="58.000000" font-family="Verdana" font-size="7" text-anchor="middle" fill="#000000">mem</text>
<circle cx="247.900000" cy="46.000000" r="1"/>
<line x1="242.900000" y1="55.000000" x2="245.900000" y2="56.000000"  transform="rotate(0.000000,245.900000,56.000000)" style="stroke: black; stroke-width:0.25;"/>
<line x1="242.900000" y1="57.000000" x2="245.900000" y2="56.000000"  transform="rotate(0.000000,245.900000,56.000000)" style="stroke: black; stroke-width:0.25;"/>
<line x1="15.000000" y1="15.000000" x2="15.000000" y2="97.000000"  style="stroke: black; stroke-linecap:round; stroke-width:0.25; stroke-dasharray:3,3;"/>
<line x1="15.000000" y1="97.000000" x2="286.900000" y2="97.000000"  style="stroke: black; stroke-linecap:round; stroke-width:0.25; stroke-dasharray:3,3;"/>
<line x1="286.900000" y1="97.000000" x2="286.900000" y2="15.000000"  style="stroke: black; stroke-linecap:round; stroke-width:0.25; stroke-dasharray:3,3;"/>
<line x1="15.000000" y1="15.000000" x2="20.000000" y2="15.000000"  style="stroke: black; stroke-linecap:round; stroke-width:0.25; stroke-dasharray:3,3;"/>
<line x1="90.950000" y1="15.000000" x2="286.900000" y2="15.000000"  style="stroke: black; stroke-linecap:round; stroke-width:0.25; stroke-dasharray:3,3;"/>
<text x="20.000000" y="17.000000" font-family="Verdana" font-size="7">dfld(1)(0.70710677f)</text>
<line x1="288.900000" y1="55.000000" x2="291.900000" y2="56.000000"  transform="rotate(0.000000,291.900000,56.000000)" style="stroke: black; stroke-width:0.25;"/>
<line x1="288.900000" y1="57.000000" x2="291.900000" y2="56.000000"  transform="rotate(0.000000,291.900000,56.000000)" style="stroke: black; stroke-width:0.25;"/>
<line x1="10.000000" y1="56.000000" x2="20.000000" y2="56.000000"  style="stroke:black; stroke-linecap:round; stroke-width:0.25;"/>
<line x1="20.000000" y1="56.000000" x2="24.000000" y2="56.000000"  style="stroke:black; stroke-linecap:round; stroke-width:0.25;"/>
<line x1="24.000000" y1="56.000000" x2="28.000000" y2="56.000000"  style="stroke:black; stroke-linecap:round; stroke-width:0.25;"/>
<line x1="28.000000" y1="56.000000" x2="36.000000" y2="56.000000"  style="stroke:black; stroke-linecap:round; stroke-width:0.25;"/>
<line x1="36.000000" y1="56.000000" x2="36.000000" y2="80.000000"  style="stroke:black; stroke-linecap:round; stroke-width:0.25;"/>
<line x1="36.000000" y1="80.000000" x2="36.000000" y2="80.000000"  style="stroke:black; stroke-linecap:round; stroke-width:0.25;"/>
<line x1="36.000000" y1="80.000000" x2="44.000000" y2="80.000000"  style="stroke:black; stroke-linecap:round; stroke-width:0.25;"/>
<line x1="44.000000" y1="40.000000" x2="44.000000" y2="40.000000"  style="stroke:black; stroke-linecap:round; stroke-width:0.25;"/>
<line x1="44.000000" y1="40.000000" x2="44.000000" y2="72.000000"  style="stroke:black; stroke-linecap:round; stroke-width:0.25;"/>
<line x1="44.000000" y1="72.000000" x2="44.000000" y2="72.000000"  style="stroke:black; stroke-linecap:round; stroke-width:0.25;"/>
<line x1="44.000000" y1="72.000000" x2="48.000000" y2="72.000000"  style="stroke:black; stroke-linecap:round; stroke-width:0.25;"/>
<line x1="44.000000" y1="80.000000" x2="48.000000" y2="80.000000"  style="stroke:black; stroke-linecap:round; stroke-width:0.25;"/>
<line x1="72.000000" y1="76.000000" x2="76.000000" y2="76.000000"  style="stroke:black; stroke-linecap:round; stroke-width:0.25;"/>
<line x1="76.000000" y1="76.000000" x2="76.000000" y2="76.000000"  style="stroke:black; stroke-linecap:round; stroke-width:0.25;"/>
<line x1="76.000000" y1="76.000000" x2="80.000000" y2="76.000000"  style="stroke:black; stroke-linecap:round; stroke-width:0.25;"/>
<line x1="85.150000" y1="40.000000" x2="44.000000" y2="40.000000"  style="stroke:black; stroke-linecap:round; stroke-width:0.25;"/>
<line x1="89.150000" y1="40.000000" x2="85.150000" y2="40.000000"  style="stroke:black; stroke-linecap:round; stroke-width:0.25;"/>
<line x1="117.150000" y1="44.000000" x2="117.150000" y2="44.000000"  style="stroke:black; stroke-linecap:round; stroke-width:0.25;"/>
<line x1="117.150000" y1="56.000000" x2="117.150000" y2="44.000000"  style="stroke:black; stroke-linecap:round; stroke-width:0.25;"/>
<line x1="117.150000" y1="36.000000" x2="113.150000" y2="36.000000"  style="stroke:black; stroke-linecap:round; stroke-width:0.25;"/>
<line x1="117.150000" y1="44.000000" x2="113.150000" y2="44.000000"  style="stroke:black; stroke-linecap:round; stroke-width:0.25;"/>
<line x1="125.150000" y1="56.000000" x2="117.150000" y2="56.000000"  style="stroke:black; stroke-linecap:round; stroke-width:0.25;"/>
<line x1="125.150000" y1="36.000000" x2="117.150000" y2="36.000000"  style="stroke:black; stroke-linecap:round; stroke-width:0.25;"/>
<line x1="129.150000" y1="36.000000" x2="125.150000" y2="36.000000"  style="stroke:black; stroke-linecap:round; stroke-width:0.25;"/>
<line x1="154.950000" y1="56.000000" x2="125.150000" y2="56.000000"  style="stroke:black; stroke-linecap:round; stroke-width:0.25;"/>
<line x1="184.750000" y1="56.000000" x2="154.950000" y2="56.000000"  style="stroke:black; stroke-linecap:round; stroke-width:0.25;"/>
<line x1="221.900000" y1="76.000000" x2="225.900000" y2="76.000000"  style="stroke:black; stroke-linecap:round; stroke-width:0.25;"/>
<line x1="225.900000" y1="56.000000" x2="184.750000" y2="56.000000"  style="stroke:black; stroke-linecap:round; stroke-width:0.25;"/>
<line x1="225.900000" y1="56.000000" x2="225.900000" y2="56.000000"  style="stroke:black; stroke-linecap:round; stroke-width:0.25;"/>
<line x1="225.900000" y1="72.000000" x2="225.900000" y2="56.000000"  style="stroke:black; stroke-linecap:round; stroke-width:0.25;"/>
<line x1="225.900000" y1="76.000000" x2="227.900000" y2="76.000000"  style="stroke:black; stroke-linecap:round; stroke-width:0.25;"/>
<line x1="227.900000" y1="76.000000" x2="233.900000" y2="76.000000"  style="stroke:black; stroke-linecap:round; stroke-width:0.25;"/>
<line x1="233.900000" y1="56.000000" x2="241.900000" y2="56.000000"  style="stroke:black; stroke-linecap:round; stroke-width:0.25;"/>
<line x1="233.900000" y1="76.000000" x2="233.900000" y2="56.000000"  style="stroke:black; stroke-linecap:round; stroke-width:0.25;"/>
<line x1="233.900000" y1="76.000000" x2="233.900000" y2="76.000000"  style="stroke:black; stroke-linecap:round; stroke-width:0.25;"/>
<line x1="241.900000" y1="56.000000" x2="245.900000" y2="56.000000"  style="stroke:black; stroke-linecap:round; stroke-width:0.25;"/>
<line x1="269.900000" y1="56.000000" x2="273.900000" y2="56.000000"  style="stroke:black; stroke-linecap:round; stroke-width:0.25;"/>
<line x1="273.900000" y1="56.000000" x2="273.900000" y2="56.000000"  style="stroke:black; stroke-linecap:round; stroke-width:0.25;"/>
<line x1="273.900000" y1="56.000000" x2="277.900000" y2="56.000000"  style="stroke:black; stroke-linecap:round; stroke-width:0.25;"/>
<line x1="277.900000" y1="56.000000" x2="281.900000" y2="56.000000"  style="stroke:black; stroke-linecap:round; stroke-width:0.25;"/>
<line x1="281.900000" y1="56.000000" x2="291.900000" y2="56.000000"  style="stroke:black; stroke-linecap:round; stroke-width:0.25;"/>
</svg>
