<?xml version="1.0"?>
<svg xmlns="http://www.w3.org/2000/svg" xmlns:xlink="http://www.w3.org/1999/xlink" viewBox="0 0 409.600000 120.000000" width="204.800000mm" height="60.000000mm" version="1.1">
<rect x="0.000000" y="0.000000" width="408.600000" height="119.000000" rx="0" ry="0" style="stroke:#000000;fill:#FFFFFF;"/>
<text x="10.000000" y="7.000000" font-family="Verdana" font-size="7"></text>
<rect x="40.000000" y="44.000000" width="25.800000" height="24.000000" rx="0" ry="0" style="stroke:#000000;fill:#FFFFFF;"/>
<text x="52.900000" y="58.000000" font-family="Verdana" font-size="7" text-anchor="middle" fill="#000000">[1] g</text>
<circle cx="42.000000" cy="46.000000" r="1"/>
<line x1="37.000000" y1="55.000000" x2="40.000000" y2="56.000000"  transform="rotate(0.000000,40.000000,56.000000)" style="stroke: black; stroke-width:0.25;"/>
<line x1="37.000000" y1="57.000000" x2="40.000000" y2="56.000000"  transform="rotate(0.000000,40.000000,56.000000)" style="stroke: black; stroke-width:0.25;"/>
<rect x="82.700000" y="36.000000" width="24.000000" height="24.000000" rx="0" ry="0" style="stroke:#000000;fill:#FFFFFF;"/>
<text x="94.700000" y="50.000000" font-family="Verdana" font-size="7" text-anchor="middle" fill="#000000">1</text>
<circle cx="84.700000" cy="38.000000" r="1"/>
<rect x="81.800000" y="68.000000" width="25.800000" height="24.000000" rx="0" ry="0" style="stroke:#000000;fill:#FFFFFF;"/>
<text x="94.700000" y="82.000000" font-family="Verdana" font-size="7" text-anchor="middle" fill="#000000">[1] g</text>
<circle cx="83.800000" cy="70.000000" r="1"/>
<rect x="123.600000" y="52.000000" width="24.000000" height="24.000000" rx="0" ry="0" style="stroke:#000000;fill:#FFFFFF;"/>
<text x="135.600000" y="66.000000" font-family="Verdana" font-size="7" text-anchor="middle" fill="#000000">-</text>
<circle cx="125.600000" cy="54.000000" r="1"/>
<line x1="120.600000" y1="59.000000" x2="123.600000" y2="60.000000"  transform="rotate(0.000000,123.600000,60.000000)" style="stroke: black; stroke-width:0.25;"/>
<line x1="120.600000" y1="61.000000" x2="123.600000" y2="60.000000"  transform="rotate(0.000000,123.600000,60.000000)" style="stroke: black; stroke-width:0.25;"/>
<line x1="120.600000" y1="67.000000" x2="123.600000" y2="68.000000"  transform="rotate(0.000000,123.600000,68.000000)" style="stroke: black; stroke-width:0.25;"/>
<line x1="120.600000" y1="69.000000" x2="123.600000" y2="68.000000"  transform="rotate(0.000000,123.600000,68.000000)" style="stroke: black; stroke-width:0.25;"/>
<rect x="163.600000" y="48.000000" width="24.000000" height="24.000000" rx="0" ry="0" style="stroke:#000000;fill:#FFFFFF;"/>
<text x="175.600000" y="62.000000" font-family="Verdana" font-size="7" text-anchor="middle" fill="#000000">*</text>
<circle cx="165.600000" cy="50.000000" r="1"/>
<line x1="160.600000" y1="55.000000" x2="163.600000" y2="56.000000"  transform="rotate(0.000000,163.600000,56.000000)" style="stroke: black; stroke-width:0.25;"/>
<line x1="160.600000" y1="57.000000" x2="163.600000" y2="56.000000"  transform="rotate(0.000000,163.600000,56.000000)" style="stroke: black; stroke-width:0.25;"/>
<line x1="160.600000" y1="63.000000" x2="163.600000" y2="64.000000"  transform="rotate(0.000000,163.600000,64.000000)" style="stroke: black; stroke-width:0.25;"/>
<line x1="160.600000" y1="65.000000" x2="163.600000" y2="64.000000"  transform="rotate(0.000000,163.600000,64.000000)" style="stroke: black; stroke-width:0.25;"/>
<rect x="233.600000" y="32.000000" width="24.000000" height="24.000000" rx="0" ry="0" style="stroke:#000000;fill:#FFFFFF;"/>
<text x="245.600000" y="46.000000" font-family="Verdana" font-size="7" text-anchor="middle" fill="#000000">1</text>
<circle cx="235.600000" cy="34.000000" r="1"/>
<rect x="273.600000" y="28.000000" width="24.000000" height="24.000000" rx="0" ry="0" style="stroke:#000000;fill:#FFFFFF;"/>
<text x="285.600000" y="42.000000" font-family="Verdana" font-size="7" text-anchor="middle" fill="#000000">@</text>
<circle cx="275.600000" cy="30.000000" r="1"/>
<line x1="270.600000" y1="35.000000" x2="273.600000" y2="36.000000"  transform="rotate(0.000000,273.600000,36.000000)" style="stroke: black; stroke-width:0.25;"/>
<line x1="270.600000" y1="37.000000" x2="273.600000" y2="36.000000"  transform="rotate(0.000000,273.600000,36.000000)" style="stroke: black; stroke-width:0.25;"/>
<line x1="270.600000" y1="43.000000" x2="273.600000" y2="44.000000"  transform="rotate(0.000000,273.600000,44.000000)" style="stroke: black; stroke-width:0.25;"/>
<line x1="270.600000" y1="45.000000" x2="273.600000" y2="44.000000"  transform="rotate(0.000000,273.600000,44.000000)" style="stroke: black; stroke-width:0.25;"/>
<rect x="252.700000" y="64.000000" width="25.800000" height="24.000000" rx="0" ry="0" style="stroke:#000000;fill:#FFFFFF;"/>
<text x="265.600000" y="78.000000" font-family="Verdana" font-size="7" text-anchor="middle" fill="#000000">[1] g</text>
<circle cx="254.700000" cy="66.000000" r="1"/>
<rect x="313.600000" y="44.000000" width="24.000000" height="24.000000" rx="0" ry="0" style="stroke:#000000;fill:#FFFFFF;"/>
<text x="325.600000" y="58.000000" font-family="Verdana" font-size="7" text-anchor="middle" fill="#000000">*</text>
<circle cx="315.600000" cy="46.000000" r="1"/>
<line x1="310.600000" y1="51.000000" x2="313.600000" y2="52.000000"  transform="rotate(0.000000,313.600000,52.000000)" style="stroke: black; stroke-width:0.25;"/>
<line x1="310.600000" y1="53.000000" x2="313.600000" y2="52.000000"  transform="rotate(0.000000,313.600000,52.000000)" style="stroke: black; stroke-width:0.25;"/>
<line x1="310.600000" y1="59.000000" x2="313.600000" y2="60.000000"  transform="rotate(0.000000,313.600000,60.000000)" style="stroke: black; stroke-width:0.25;"/>
<line x1="310.600000" y1="61.000000" x2="313.600000" y2="60.000000"  transform="rotate(0.000000,313.600000,60.000000)" style="stroke: black; stroke-width:0.25;"/>
<rect x="353.600000" y="48.000000" width="24.000000" height="24.000000" rx="0" ry="0" style="stroke:#000000;fill:#FFFFFF;"/>
<text x="365.600000" y="62.000000" font-family="Verdana" font-size="7" text-anchor="middle" fill="#000000">+</text>
<circle cx="355.600000" cy="50.000000" r="1"/>
<line x1="350.600000" y1="55.000000" x2="353.600000" y2="56.000000"  transform="rotate(0.000000,353.600000,56.000000)" style="stroke: black; stroke-width:0.25;"/>
<line x1="350.600000" y1="57.000000" x2="353.600000" y2="56.000000"  transform="rotate(0.000000,353.600000,56.000000)" style="stroke: black; stroke-width:0.25;"/>
<line x1="350.600000" y1="63.000000" x2="353.600000" y2="64.000000"  transform="rotate(0.000000,353.600000,64.000000)" style="stroke: black; stroke-width:0.25;"/>
<line x1="350.600000" y1="65.000000" x2="353.600000" y2="64.000000"  transform="rotate(0.000000,353.600000,64.000000)" style="stroke: black; stroke-width:0.25;"/>
<line x1="15.000000" y1="15.000000" x2="15.000000" y2="105.000000"  style="stroke: black; stroke-linecap:round; stroke-width:0.25; stroke-dasharray:3,3;"/>
<line x1="15.000000" y1="105.000000" x2="394.600000" y2="105.000000"  style="stroke: black; stroke-linecap:round; stroke-width:0.25; stroke-dasharray:3,3;"/>
<line x1="394.600000" y1="105.000000" x2="394.600000" y2="15.000000"  style="stroke: black; stroke-linecap:round; stroke-width:0.25; stroke-dasharray:3,3;"/>
<line x1="15.000000" y1="15.000000" x2="20.000000" y2="15.000000"  style="stroke: black; stroke-linecap:round; stroke-width:0.25; stroke-dasharray:3,3;"/>
<line x1="49.025000" y1="15.000000" x2="394.600000" y2="15.000000"  style="stroke: black; stroke-linecap:round; stroke-width:0.25; stroke-dasharray:3,3;"/>
<text x="20.000000" y="17.000000" font-family="Verdana" font-size="7">process</text>
<line x1="396.600000" y1="59.000000" x2="399.600000" y2="60.000000"  transform="rotate(0.000000,399.600000,60.000000)" style="stroke: black; stroke-width:0.25;"/>
<line x1="396.600000" y1="61.000000" x2="399.600000" y2="60.000000"  transform="rotate(0.000000,399.600000,60.000000)" style="stroke: black; stroke-width:0.25;"/>
<line x1="10.000000" y1="56.000000" x2="20.000000" y2="56.000000"  style="stroke:black; stroke-linecap:round; stroke-width:0.25;"/>
<line x1="10.000000" y1="64.000000" x2="20.000000" y2="64.000000"  style="stroke:black; stroke-linecap:round; stroke-width:0.25;"/>
<line x1="20.000000" y1="56.000000" x2="24.000000" y2="56.000000"  style="stroke:black; stroke-linecap:round; stroke-width:0.25;"/>
<line x1="20.000000" y1="64.000000" x2="24.000000" y2="64.000000"  style="stroke:black; stroke-linecap:round; stroke-width:0.25;"/>
<line x1="24.000000" y1="56.000000" x2="28.000000" y2="56.000000"  style="stroke:black; stroke-linecap:round; stroke-width:0.25;"/>
<line x1="24.000000" y1="64.000000" x2="28.000000" y2="64.000000"  style="stroke:black; stroke-linecap:round; stroke-width:0.25;"/>
<line x1="28.000000" y1="56.000000" x2="36.000000" y2="56.000000"  style="stroke:black; stroke-linecap:round; stroke-width:0.25;"/>
<line x1="28.000000" y1="64.000000" x2="36.000000" y2="64.000000"  style="stroke:black; stroke-linecap:round; stroke-width:0.25;"/>
<line x1="36.000000" y1="56.000000" x2="40.000000" y2="56.000000"  style="stroke:black; stroke-linecap:round; stroke-width:0.25;"/>
<line x1="36.000000" y1="64.000000" x2="36.000000" y2="76.000000"  style="stroke:black; stroke-linecap:round; stroke-width:0.25;"/>
<line x1="36.000000" y1="76.000000" x2="36.000000" y2="76.000000"  style="stroke:black; stroke-linecap:round; stroke-width:0.25;"/>
<line x1="36.000000" y1="76.000000" x2="52.900000" y2="76.000000"  style="stroke:black; stroke-linecap:round; stroke-width:0.25;"/>
<line x1="52.900000" y1="76.000000" x2="69.800000" y2="76.000000"  style="stroke:black; stroke-linecap:round; stroke-width:0.25;"/>
<line x1="69.800000" y1="28.000000" x2="77.800000" y2="28.000000"  style="stroke:black; stroke-linecap:round; stroke-width:0.25;"/>
<line x1="69.800000" y1="76.000000" x2="69.800000" y2="28.000000"  style="stroke:black; stroke-linecap:round; stroke-width:0.25;"/>
<line x1="69.800000" y1="76.000000" x2="69.800000" y2="76.000000"  style="stroke:black; stroke-linecap:round; stroke-width:0.25;"/>
<line x1="77.800000" y1="28.000000" x2="114.700000" y2="28.000000"  style="stroke:black; stroke-linecap:round; stroke-width:0.25;"/>
<line x1="106.700000" y1="48.000000" x2="110.700000" y2="48.000000"  style="stroke:black; stroke-linecap:round; stroke-width:0.25;"/>
<line x1="107.600000" y1="80.000000" x2="111.600000" y2="80.000000"  style="stroke:black; stroke-linecap:round; stroke-width:0.25;"/>
<line x1="110.700000" y1="48.000000" x2="111.600000" y2="48.000000"  style="stroke:black; stroke-linecap:round; stroke-width:0.25;"/>
<line x1="111.600000" y1="48.000000" x2="119.600000" y2="48.000000"  style="stroke:black; stroke-linecap:round; stroke-width:0.25;"/>
<line x1="111.600000" y1="68.000000" x2="119.600000" y2="68.000000"  style="stroke:black; stroke-linecap:round; stroke-width:0.25;"/>
<line x1="111.600000" y1="80.000000" x2="111.600000" y2="68.000000"  style="stroke:black; stroke-linecap:round; stroke-width:0.25;"/>
<line x1="111.600000" y1="80.000000" x2="111.600000" y2="80.000000"  style="stroke:black; stroke-linecap:round; stroke-width:0.25;"/>
<line x1="114.700000" y1="28.000000" x2="151.600000" y2="28.000000"  style="stroke:black; stroke-linecap:round; stroke-width:0.25;"/>
<line x1="119.600000" y1="48.000000" x2="119.600000" y2="60.000000"  style="stroke:black; stroke-linecap:round; stroke-width:0.25;"/>
<line x1="119.600000" y1="60.000000" x2="119.600000" y2="60.000000"  style="stroke:black; stroke-linecap:round; stroke-width:0.25;"/>
<line x1="119.600000" y1="60.000000" x2="123.600000" y2="60.000000"  style="stroke:black; stroke-linecap:round; stroke-width:0.25;"/>
<line x1="119.600000" y1="68.000000" x2="123.600000" y2="68.000000"  style="stroke:black; stroke-linecap:round; stroke-width:0.25;"/>
<line x1="147.600000" y1="64.000000" x2="151.600000" y2="64.000000"  style="stroke:black; stroke-linecap:round; stroke-width:0.25;"/>
<line x1="151.600000" y1="28.000000" x2="159.600000" y2="28.000000"  style="stroke:black; stroke-linecap:round; stroke-width:0.25;"/>
<line x1="151.600000" y1="64.000000" x2="159.600000" y2="64.000000"  style="stroke:black; stroke-linecap:round; stroke-width:0.25;"/>
<line x1="159.600000" y1="28.000000" x2="159.600000" y2="56.000000"  style="stroke:black; stroke-linecap:round; stroke-width:0.25;"/>
<line x1="159.600000" y1="56.000000" x2="159.600000" y2="56.000000"  style="stroke:black; stroke-linecap:round; stroke-width:0.25;"/>
<line x1="159.600000" y1="56.000000" x2="163.600000" y2="56.000000"  style="stroke:black; stroke-linecap:round; stroke-width:0.25;"/>
<line x1="159.600000" y1="64.000000" x2="163.600000" y2="64.000000"  style="stroke:black; stroke-linecap:round; stroke-width:0.25;"/>
<line x1="187.600000" y1="60.000000" x2="191.600000" y2="60.000000"  style="stroke:black; stroke-linecap:round; stroke-width:0.25;"/>
<line x1="191.600000" y1="60.000000" x2="229.600000" y2="24.000000"  style="stroke:black; stroke-linecap:round; stroke-width:0.25;"/>
<line x1="191.600000" y1="60.000000" x2="229.600000" y2="96.000000"  style="stroke:black; stroke-linecap:round; stroke-width:0.25;"/>
<line x1="229.600000" y1="24.000000" x2="245.600000" y2="24.000000"  style="stroke:black; stroke-linecap:round; stroke-width:0.25;"/>
<line x1="229.600000" y1="96.000000" x2="285.600000" y2="96.000000"  style="stroke:black; stroke-linecap:round; stroke-width:0.25;"/>
<line x1="245.600000" y1="24.000000" x2="261.600000" y2="24.000000"  style="stroke:black; stroke-linecap:round; stroke-width:0.25;"/>
<line x1="257.600000" y1="44.000000" x2="261.600000" y2="44.000000"  style="stroke:black; stroke-linecap:round; stroke-width:0.25;"/>
<line x1="261.600000" y1="24.000000" x2="269.600000" y2="24.000000"  style="stroke:black; stroke-linecap:round; stroke-width:0.25;"/>
<line x1="261.600000" y1="44.000000" x2="269.600000" y2="44.000000"  style="stroke:black; stroke-linecap:round; stroke-width:0.25;"/>
<line x1="269.600000" y1="24.000000" x2="269.600000" y2="36.000000"  style="stroke:black; stroke-linecap:round; stroke-width:0.25;"/>
<line x1="269.600000" y1="36.000000" x2="269.600000" y2="36.000000"  style="stroke:black; stroke-linecap:round; stroke-width:0.25;"/>
<line x1="269.600000" y1="36.000000" x2="273.600000" y2="36.000000"  style="stroke:black; stroke-linecap:round; stroke-width:0.25;"/>
<line x1="269.600000" y1="44.000000" x2="273.600000" y2="44.000000"  style="stroke:black; stroke-linecap:round; stroke-width:0.25;"/>
<line x1="278.500000" y1="76.000000" x2="282.500000" y2="76.000000"  style="stroke:black; stroke-linecap:round; stroke-width:0.25;"/>
<line x1="282.500000" y1="76.000000" x2="301.600000" y2="76.000000"  style="stroke:black; stroke-linecap:round; stroke-width:0.25;"/>
<line x1="285.600000" y1="96.000000" x2="341.600000" y2="96.000000"  style="stroke:black; stroke-linecap:round; stroke-width:0.25;"/>
<line x1="297.600000" y1="40.000000" x2="301.600000" y2="40.000000"  style="stroke:black; stroke-linecap:round; stroke-width:0.25;"/>
<line x1="301.600000" y1="40.000000" x2="309.600000" y2="40.000000"  style="stroke:black; stroke-linecap:round; stroke-width:0.25;"/>
<line x1="301.600000" y1="60.000000" x2="309.600000" y2="60.000000"  style="stroke:black; stroke-linecap:round; stroke-width:0.25;"/>
<line x1="301.600000" y1="76.000000" x2="301.600000" y2="60.000000"  style="stroke:black; stroke-linecap:round; stroke-width:0.25;"/>
<line x1="301.600000" y1="76.000000" x2="301.600000" y2="76.000000"  style="stroke:black; stroke-linecap:round; stroke-width:0.25;"/>
<line x1="309.600000" y1="40.000000" x2="309.600000" y2="52.000000"  style="stroke:black; stroke-linecap:round; stroke-width:0.25;"/>
<line x1="309.600000" y1="52.000000" x2="309.600000" y2="52.000000"  style="stroke:black; stroke-linecap:round; stroke-width:0.25;"/>
<line x1="309.600000" y1="52.000000" x2="313.600000" y2="52.000000"  style="stroke:black; stroke-linecap:round; stroke-width:0.25;"/>
<line x1="309.600000" y1="60.000000" x2="313.600000" y2="60.000000"  style="stroke:black; stroke-linecap:round; stroke-width:0.25;"/>
<line x1="337.600000" y1="56.000000" x2="341.600000" y2="56.000000"  style="stroke:black; stroke-linecap:round; stroke-width:0.25;"/>
<line x1="341.600000" y1="56.000000" x2="349.600000" y2="56.000000"  style="stroke:black; stroke-linecap:round; stroke-width:0.25;"/>
<line x1="341.600000" y1="64.000000" x2="349.600000" y2="64.000000"  style="stroke:black; stroke-linecap:round; stroke-width:0.25;"/>
<line x1="341.600000" y1="96.000000" x2="341.600000" y2="64.000000"  style="stroke:black; stroke-linecap:round; stroke-width:0.25;"/>
<line x1="341.600000" y1="96.000000" x2="341.600000" y2="96.000000"  style="stroke:black; stroke-linecap:round; stroke-width:0.25;"/>
<line x1="349.600000" y1="56.000000" x2="353.600000" y2="56.000000"  style="stroke:black; stroke-linecap:round; stroke-width:0.25;"/>
<line x1="349.600000" y1="64.000000" x2="353.600000" y2="64.000000"  style="stroke:black; stroke-linecap:round; stroke-width:0.25;"/>
<line x1="377.600000" y1="60.000000" x2="381.600000" y2="60.000000"  style="stroke:black; stroke-linecap:round; stroke-width:0.25;"/>
<line x1="381.600000" y1="60.000000" x2="381.600000" y2="60.000000"  style="stroke:black; stroke-linecap:round; stroke-width:0.25;"/>
<line x1="381.600000" y1="60.000000" x2="385.600000" y2="60.000000"  style="stroke:black; stroke-linecap:round; stroke-width:0.25;"/>
<line x1="385.600000" y1="60.000000" x2="389.600000" y2="60.000000"  style="stroke:black; stroke-linecap:round; stroke-width:0.25;"/>
<line x1="389.600000" y1="60.000000" x2="399.600000" y2="60.000000"  style="stroke:black; stroke-linecap:round; stroke-width:0.25;"/>
</svg>
