<?xml version="1.0"?>
<svg xmlns="http://www.w3.org/2000/svg" xmlns:xlink="http://www.w3.org/1999/xlink" viewBox="0 0 419.800000 168.000000" width="209.900000mm" height="84.000000mm" version="1.1">
<rect x="0.000000" y="0.000000" width="418.800000" height="167.000000" rx="0" ry="0" style="stroke:#000000;fill:#FFFFFF;"/>
<text x="10.000000" y="7.000000" font-family="Verdana" font-size="7"></text>
<a xlink:href="apf-0x600000f273c0.svg">
<rect x="32.000000" y="72.000000" width="103.200000" height="24.000000" rx="0" ry="0" style="stroke:#000000;fill:#FFFFFF;"/>
</a>
<a xlink:href="apf-0x600000f273c0.svg">
<text x="83.600000" y="86.000000" font-family="Verdana" font-size="7" text-anchor="middle" fill="#000000">apf(12511)(0.70710677f)</text>
</a>
<circle cx="34.000000" cy="74.000000" r="1"/>
<line x1="29.000000" y1="83.000000" x2="32.000000" y2="84.000000"  transform="rotate(0.000000,32.000000,84.000000)" style="stroke: black; stroke-width:0.25;"/>
<line x1="29.000000" y1="85.000000" x2="32.000000" y2="84.000000"  transform="rotate(0.000000,32.000000,84.000000)" style="stroke: black; stroke-width:0.25;"/>
<a xlink:href="apf-0x600000f20e10.svg">
<rect x="143.200000" y="72.000000" width="103.200000" height="24.000000" rx="0" ry="0" style="stroke:#000000;fill:#FFFFFF;"/>
</a>
<a xlink:href="apf-0x600000f20e10.svg">
<text x="194.800000" y="86.000000" font-family="Verdana" font-size="7" text-anchor="middle" fill="#000000">apf(6257)(0.70710677f)</text>
</a>
<circle cx="145.200000" cy="74.000000" r="1"/>
<line x1="140.200000" y1="83.000000" x2="143.200000" y2="84.000000"  transform="rotate(0.000000,143.200000,84.000000)" style="stroke: black; stroke-width:0.25;"/>
<line x1="140.200000" y1="85.000000" x2="143.200000" y2="84.000000"  transform="rotate(0.000000,143.200000,84.000000)" style="stroke: black; stroke-width:0.25;"/>
<a xlink:href="dfld-0x600000f225b0.svg">
<rect x="294.400000" y="24.000000" width="77.400000" height="24.000000" rx="0" ry="0" style="stroke:#000000;fill:#FFFFFF;"/>
</a>
<a xlink:href="dfld-0x600000f225b0.svg">
<text x="333.100000" y="38.000000" font-family="Verdana" font-size="7" text-anchor="middle" fill="#000000">dfld(3343)(0.37f)</text>
</a>
<circle cx="296.400000" cy="26.000000" r="1"/>
<line x1="291.400000" y1="35.000000" x2="294.400000" y2="36.000000"  transform="rotate(0.000000,294.400000,36.000000)" style="stroke: black; stroke-width:0.25;"/>
<line x1="291.400000" y1="37.000000" x2="294.400000" y2="36.000000"  transform="rotate(0.000000,294.400000,36.000000)" style="stroke: black; stroke-width:0.25;"/>
<a xlink:href="dfld-0x600000f23cc0.svg">
<rect x="294.400000" y="56.000000" width="77.400000" height="24.000000" rx="0" ry="0" style="stroke:#000000;fill:#FFFFFF;"/>
</a>
<a xlink:href="dfld-0x600000f23cc0.svg">
<text x="333.100000" y="70.000000" font-family="Verdana" font-size="7" text-anchor="middle" fill="#000000">dfld(3083)(0.5f)</text>
</a>
<circle cx="296.400000" cy="58.000000" r="1"/>
<line x1="291.400000" y1="67.000000" x2="294.400000" y2="68.000000"  transform="rotate(0.000000,294.400000,68.000000)" style="stroke: black; stroke-width:0.25;"/>
<line x1="291.400000" y1="69.000000" x2="294.400000" y2="68.000000"  transform="rotate(0.000000,294.400000,68.000000)" style="stroke: black; stroke-width:0.25;"/>
<a xlink:href="dfld-0x600000f2d440.svg">
<rect x="294.400000" y="88.000000" width="77.400000" height="24.000000" rx="0" ry="0" style="stroke:#000000;fill:#FFFFFF;"/>
</a>
<a xlink:href="dfld-0x600000f2d440.svg">
<text x="333.100000" y="102.000000" font-family="Verdana" font-size="7" text-anchor="middle" fill="#000000">dfld(8951)(0.4f)</text>
</a>
<circle cx="296.400000" cy="90.000000" r="1"/>
<line x1="291.400000" y1="99.000000" x2="294.400000" y2="100.000000"  transform="rotate(0.000000,294.400000,100.000000)" style="stroke: black; stroke-width:0.25;"/>
<line x1="291.400000" y1="101.000000" x2="294.400000" y2="100.000000"  transform="rotate(0.000000,294.400000,100.000000)" style="stroke: black; stroke-width:0.25;"/>
<a xlink:href="dfld-0x600000f2eb50.svg">
<rect x="294.400000" y="120.000000" width="77.400000" height="24.000000" rx="0" ry="0" style="stroke:#000000;fill:#FFFFFF;"/>
</a>
<a xlink:href="dfld-0x600000f2eb50.svg">
<text x="333.100000" y="134.000000" font-family="Verdana" font-size="7" text-anchor="middle" fill="#000000">dfld(4733)(0.7f)</text>
</a>
<circle cx="296.400000" cy="122.000000" r="1"/>
<line x1="291.400000" y1="131.000000" x2="294.400000" y2="132.000000"  transform="rotate(0.000000,294.400000,132.000000)" style="stroke: black; stroke-width:0.25;"/>
<line x1="291.400000" y1="133.000000" x2="294.400000" y2="132.000000"  transform="rotate(0.000000,294.400000,132.000000)" style="stroke: black; stroke-width:0.25;"/>
<line x1="15.000000" y1="15.000000" x2="15.000000" y2="153.000000"  style="stroke: black; stroke-linecap:round; stroke-width:0.25; stroke-dasharray:3,3;"/>
<line x1="15.000000" y1="153.000000" x2="404.800000" y2="153.000000"  style="stroke: black; stroke-linecap:round; stroke-width:0.25; stroke-dasharray:3,3;"/>
<line x1="404.800000" y1="153.000000" x2="404.800000" y2="15.000000"  style="stroke: black; stroke-linecap:round; stroke-width:0.25; stroke-dasharray:3,3;"/>
<line x1="15.000000" y1="15.000000" x2="20.000000" y2="15.000000"  style="stroke: black; stroke-linecap:round; stroke-width:0.25; stroke-dasharray:3,3;"/>
<line x1="49.025000" y1="15.000000" x2="404.800000" y2="15.000000"  style="stroke: black; stroke-linecap:round; stroke-width:0.25; stroke-dasharray:3,3;"/>
<text x="20.000000" y="17.000000" font-family="Verdana" font-size="7">process</text>
<line x1="406.800000" y1="71.000000" x2="409.800000" y2="72.000000"  transform="rotate(0.000000,409.800000,72.000000)" style="stroke: black; stroke-width:0.25;"/>
<line x1="406.800000" y1="73.000000" x2="409.800000" y2="72.000000"  transform="rotate(0.000000,409.800000,72.000000)" style="stroke: black; stroke-width:0.25;"/>
<line x1="406.800000" y1="79.000000" x2="409.800000" y2="80.000000"  transform="rotate(0.000000,409.800000,80.000000)" style="stroke: black; stroke-width:0.25;"/>
<line x1="406.800000" y1="81.000000" x2="409.800000" y2="80.000000"  transform="rotate(0.000000,409.800000,80.000000)" style="stroke: black; stroke-width:0.25;"/>
<line x1="406.800000" y1="87.000000" x2="409.800000" y2="88.000000"  transform="rotate(0.000000,409.800000,88.000000)" style="stroke: black; stroke-width:0.25;"/>
<line x1="406.800000" y1="89.000000" x2="409.800000" y2="88.000000"  transform="rotate(0.000000,409.800000,88.000000)" style="stroke: black; stroke-width:0.25;"/>
<line x1="406.800000" y1="95.000000" x2="409.800000" y2="96.000000"  transform="rotate(0.000000,409.800000,96.000000)" style="stroke: black; stroke-width:0.25;"/>
<line x1="406.800000" y1="97.000000" x2="409.800000" y2="96.000000"  transform="rotate(0.000000,409.800000,96.000000)" style="stroke: black; stroke-width:0.25;"/>
<line x1="10.000000" y1="84.000000" x2="20.000000" y2="84.000000"  style="stroke:black; stroke-linecap:round; stroke-width:0.25;"/>
<line x1="20.000000" y1="84.000000" x2="24.000000" y2="84.000000"  style="stroke:black; stroke-linecap:round; stroke-width:0.25;"/>
<line x1="24.000000" y1="84.000000" x2="28.000000" y2="84.000000"  style="stroke:black; stroke-linecap:round; stroke-width:0.25;"/>
<line x1="28.000000" y1="84.000000" x2="28.000000" y2="84.000000"  style="stroke:black; stroke-linecap:round; stroke-width:0.25;"/>
<line x1="28.000000" y1="84.000000" x2="32.000000" y2="84.000000"  style="stroke:black; stroke-linecap:round; stroke-width:0.25;"/>
<line x1="135.200000" y1="84.000000" x2="139.200000" y2="84.000000"  style="stroke:black; stroke-linecap:round; stroke-width:0.25;"/>
<line x1="139.200000" y1="84.000000" x2="139.200000" y2="84.000000"  style="stroke:black; stroke-linecap:round; stroke-width:0.25;"/>
<line x1="139.200000" y1="84.000000" x2="143.200000" y2="84.000000"  style="stroke:black; stroke-linecap:round; stroke-width:0.25;"/>
<line x1="246.400000" y1="84.000000" x2="250.400000" y2="84.000000"  style="stroke:black; stroke-linecap:round; stroke-width:0.25;"/>
<line x1="250.400000" y1="84.000000" x2="290.400000" y2="36.000000"  style="stroke:black; stroke-linecap:round; stroke-width:0.25;"/>
<line x1="250.400000" y1="84.000000" x2="290.400000" y2="68.000000"  style="stroke:black; stroke-linecap:round; stroke-width:0.25;"/>
<line x1="250.400000" y1="84.000000" x2="290.400000" y2="100.000000"  style="stroke:black; stroke-linecap:round; stroke-width:0.25;"/>
<line x1="250.400000" y1="84.000000" x2="290.400000" y2="132.000000"  style="stroke:black; stroke-linecap:round; stroke-width:0.25;"/>
<line x1="290.400000" y1="36.000000" x2="294.400000" y2="36.000000"  style="stroke:black; stroke-linecap:round; stroke-width:0.25;"/>
<line x1="290.400000" y1="68.000000" x2="294.400000" y2="68.000000"  style="stroke:black; stroke-linecap:round; stroke-width:0.25;"/>
<line x1="290.400000" y1="100.000000" x2="294.400000" y2="100.000000"  style="stroke:black; stroke-linecap:round; stroke-width:0.25;"/>
<line x1="290.400000" y1="132.000000" x2="294.400000" y2="132.000000"  style="stroke:black; stroke-linecap:round; stroke-width:0.25;"/>
<line x1="371.800000" y1="36.000000" x2="375.800000" y2="36.000000"  style="stroke:black; stroke-linecap:round; stroke-width:0.25;"/>
<line x1="371.800000" y1="68.000000" x2="375.800000" y2="68.000000"  style="stroke:black; stroke-linecap:round; stroke-width:0.25;"/>
<line x1="371.800000" y1="100.000000" x2="375.800000" y2="100.000000"  style="stroke:black; stroke-linecap:round; stroke-width:0.25;"/>
<line x1="371.800000" y1="132.000000" x2="375.800000" y2="132.000000"  style="stroke:black; stroke-linecap:round; stroke-width:0.25;"/>
<line x1="375.800000" y1="36.000000" x2="391.800000" y2="36.000000"  style="stroke:black; stroke-linecap:round; stroke-width:0.25;"/>
<line x1="375.800000" y1="68.000000" x2="383.800000" y2="68.000000"  style="stroke:black; stroke-linecap:round; stroke-width:0.25;"/>
<line x1="375.800000" y1="88.000000" x2="391.800000" y2="88.000000"  style="stroke:black; stroke-linecap:round; stroke-width:0.25;"/>
<line x1="375.800000" y1="100.000000" x2="375.800000" y2="88.000000"  style="stroke:black; stroke-linecap:round; stroke-width:0.25;"/>
<line x1="375.800000" y1="100.000000" x2="375.800000" y2="100.000000"  style="stroke:black; stroke-linecap:round; stroke-width:0.25;"/>
<line x1="375.800000" y1="132.000000" x2="383.800000" y2="132.000000"  style="stroke:black; stroke-linecap:round; stroke-width:0.25;"/>
<line x1="383.800000" y1="68.000000" x2="383.800000" y2="80.000000"  style="stroke:black; stroke-linecap:round; stroke-width:0.25;"/>
<line x1="383.800000" y1="80.000000" x2="391.800000" y2="80.000000"  style="stroke:black; stroke-linecap:round; stroke-width:0.25;"/>
<line x1="383.800000" y1="96.000000" x2="391.800000" y2="96.000000"  style="stroke:black; stroke-linecap:round; stroke-width:0.25;"/>
<line x1="383.800000" y1="132.000000" x2="383.800000" y2="96.000000"  style="stroke:black; stroke-linecap:round; stroke-width:0.25;"/>
<line x1="391.800000" y1="36.000000" x2="391.800000" y2="72.000000"  style="stroke:black; stroke-linecap:round; stroke-width:0.25;"/>
<line x1="391.800000" y1="72.000000" x2="391.800000" y2="72.000000"  style="stroke:black; stroke-linecap:round; stroke-width:0.25;"/>
<line x1="391.800000" y1="72.000000" x2="395.800000" y2="72.000000"  style="stroke:black; stroke-linecap:round; stroke-width:0.25;"/>
<line x1="391.800000" y1="80.000000" x2="395.800000" y2="80.000000"  style="stroke:black; stroke-linecap:round; stroke-width:0.25;"/>
<line x1="391.800000" y1="88.000000" x2="395.800000" y2="88.000000"  style="stroke:black; stroke-linecap:round; stroke-width:0.25;"/>
<line x1="391.800000" y1="96.000000" x2="395.800000" y2="96.000000"  style="stroke:black; stroke-linecap:round; stroke-width:0.25;"/>
<line x1="395.800000" y1="72.000000" x2="399.800000" y2="72.000000"  style="stroke:black; stroke-linecap:round; stroke-width:0.25;"/>
<line x1="395.800000" y1="80.000000" x2="399.800000" y2="80.000000"  style="stroke:black; stroke-linecap:round; stroke-width:0.25;"/>
<line x1="395.800000" y1="88.000000" x2="399.800000" y2="88.000000"  style="stroke:black; stroke-linecap:round; stroke-width:0.25;"/>
<line x1="395.800000" y1="96.000000" x2="399.800000" y2="96.000000"  style="stroke:black; stroke-linecap:round; stroke-width:0.25;"/>
<line x1="399.800000" y1="72.000000" x2="409.800000" y2="72.000000"  style="stroke:black; stroke-linecap:round; stroke-width:0.25;"/>
<line x1="399.800000" y1="80.000000" x2="409.800000" y2="80.000000"  style="stroke:black; stroke-linecap:round; stroke-width:0.25;"/>
<line x1="399.800000" y1="88.000000" x2="409.800000" y2="88.000000"  style="stroke:black; stroke-linecap:round; stroke-width:0.25;"/>
<line x1="399.800000" y1="96.000000" x2="409.800000" y2="96.000000"  style="stroke:black; stroke-linecap:round; stroke-width:0.25;"/>
</svg>
