<?xml version="1.0"?>
<svg xmlns="http://www.w3.org/2000/svg" xmlns:xlink="http://www.w3.org/1999/xlink" viewBox="0 0 543.800000 240.000000" width="271.900000mm" height="120.000000mm" version="1.1">
<rect x="0.000000" y="0.000000" width="542.800000" height="239.000000" rx="0" ry="0" style="stroke:#000000;fill:#FFFFFF;"/>
<text x="10.000000" y="7.000000" font-family="Verdana" font-size="7"></text>
<rect x="232.100000" y="32.000000" width="25.800000" height="24.000000" rx="0" ry="0" style="stroke:#000000;fill:#FFFFFF;"/>
<text x="245.000000" y="46.000000" font-family="Verdana" font-size="7" text-anchor="middle" fill="#000000">0.5f</text>
<circle cx="234.100000" cy="34.000000" r="1"/>
<rect x="265.900000" y="32.000000" width="25.800000" height="24.000000" rx="0" ry="0" style="stroke:#000000;fill:#FFFFFF;"/>
<text x="278.800000" y="46.000000" font-family="Verdana" font-size="7" text-anchor="middle" fill="#000000">sqrt</text>
<circle cx="267.900000" cy="34.000000" r="1"/>
<line x1="262.900000" y1="43.000000" x2="265.900000" y2="44.000000"  transform="rotate(0.000000,265.900000,44.000000)" style="stroke: black; stroke-width:0.25;"/>
<line x1="262.900000" y1="45.000000" x2="265.900000" y2="44.000000"  transform="rotate(0.000000,265.900000,44.000000)" style="stroke: black; stroke-width:0.25;"/>
<rect x="307.700000" y="28.000000" width="24.000000" height="24.000000" rx="0" ry="0" style="stroke:#000000;fill:#FFFFFF;"/>
<text x="319.700000" y="42.000000" font-family="Verdana" font-size="7" text-anchor="middle" fill="#000000">*</text>
<circle cx="309.700000" cy="30.000000" r="1"/>
<line x1="304.700000" y1="35.000000" x2="307.700000" y2="36.000000"  transform="rotate(0.000000,307.700000,36.000000)" style="stroke: black; stroke-width:0.25;"/>
<line x1="304.700000" y1="37.000000" x2="307.700000" y2="36.000000"  transform="rotate(0.000000,307.700000,36.000000)" style="stroke: black; stroke-width:0.25;"/>
<line x1="304.700000" y1="43.000000" x2="307.700000" y2="44.000000"  transform="rotate(0.000000,307.700000,44.000000)" style="stroke: black; stroke-width:0.25;"/>
<line x1="304.700000" y1="45.000000" x2="307.700000" y2="44.000000"  transform="rotate(0.000000,307.700000,44.000000)" style="stroke: black; stroke-width:0.25;"/>
<a xlink:href="dfld-0x60000091a0a0.svg">
<rect x="92.000000" y="64.000000" width="77.400000" height="24.000000" rx="0" ry="0" style="stroke:#000000;fill:#FFFFFF;"/>
</a>
<a xlink:href="dfld-0x60000091a0a0.svg">
<text x="130.700000" y="78.000000" font-family="Verdana" font-size="7" text-anchor="middle" fill="#000000">dfld(3343)(0.37f)</text>
</a>
<circle cx="94.000000" cy="66.000000" r="1"/>
<line x1="89.000000" y1="75.000000" x2="92.000000" y2="76.000000"  transform="rotate(0.000000,92.000000,76.000000)" style="stroke: black; stroke-width:0.25;"/>
<line x1="89.000000" y1="77.000000" x2="92.000000" y2="76.000000"  transform="rotate(0.000000,92.000000,76.000000)" style="stroke: black; stroke-width:0.25;"/>
<a xlink:href="dfld-0x60000091b600.svg">
<rect x="92.000000" y="96.000000" width="77.400000" height="24.000000" rx="0" ry="0" style="stroke:#000000;fill:#FFFFFF;"/>
</a>
<a xlink:href="dfld-0x60000091b600.svg">
<text x="130.700000" y="110.000000" font-family="Verdana" font-size="7" text-anchor="middle" fill="#000000">dfld(3083)(0.5f)</text>
</a>
<circle cx="94.000000" cy="98.000000" r="1"/>
<line x1="89.000000" y1="107.000000" x2="92.000000" y2="108.000000"  transform="rotate(0.000000,92.000000,108.000000)" style="stroke: black; stroke-width:0.25;"/>
<line x1="89.000000" y1="109.000000" x2="92.000000" y2="108.000000"  transform="rotate(0.000000,92.000000,108.000000)" style="stroke: black; stroke-width:0.25;"/>
<a xlink:href="dfld-0x60000091cbd0.svg">
<rect x="92.000000" y="128.000000" width="77.400000" height="24.000000" rx="0" ry="0" style="stroke:#000000;fill:#FFFFFF;"/>
</a>
<a xlink:href="dfld-0x60000091cbd0.svg">
<text x="130.700000" y="142.000000" font-family="Verdana" font-size="7" text-anchor="middle" fill="#000000">dfld(8951)(0.4f)</text>
</a>
<circle cx="94.000000" cy="130.000000" r="1"/>
<line x1="89.000000" y1="139.000000" x2="92.000000" y2="140.000000"  transform="rotate(0.000000,92.000000,140.000000)" style="stroke: black; stroke-width:0.25;"/>
<line x1="89.000000" y1="141.000000" x2="92.000000" y2="140.000000"  transform="rotate(0.000000,92.000000,140.000000)" style="stroke: black; stroke-width:0.25;"/>
<a xlink:href="dfld-0x60000091e130.svg">
<rect x="92.000000" y="160.000000" width="77.400000" height="24.000000" rx="0" ry="0" style="stroke:#000000;fill:#FFFFFF;"/>
</a>
<a xlink:href="dfld-0x60000091e130.svg">
<text x="130.700000" y="174.000000" font-family="Verdana" font-size="7" text-anchor="middle" fill="#000000">dfld(4733)(0.7f)</text>
</a>
<circle cx="94.000000" cy="162.000000" r="1"/>
<line x1="89.000000" y1="171.000000" x2="92.000000" y2="172.000000"  transform="rotate(0.000000,92.000000,172.000000)" style="stroke: black; stroke-width:0.25;"/>
<line x1="89.000000" y1="173.000000" x2="92.000000" y2="172.000000"  transform="rotate(0.000000,92.000000,172.000000)" style="stroke: black; stroke-width:0.25;"/>
<a xlink:href="apf-0x60000091fb10.svg">
<rect x="217.400000" y="112.000000" width="103.200000" height="24.000000" rx="0" ry="0" style="stroke:#000000;fill:#FFFFFF;"/>
</a>
<a xlink:href="apf-0x60000091fb10.svg">
<text x="269.000000" y="126.000000" font-family="Verdana" font-size="7" text-anchor="middle" fill="#000000">apf(12511)(0.70710677f)</text>
</a>
<circle cx="219.400000" cy="114.000000" r="1"/>
<line x1="214.400000" y1="123.000000" x2="217.400000" y2="124.000000"  transform="rotate(0.000000,217.400000,124.000000)" style="stroke: black; stroke-width:0.25;"/>
<line x1="214.400000" y1="125.000000" x2="217.400000" y2="124.000000"  transform="rotate(0.000000,217.400000,124.000000)" style="stroke: black; stroke-width:0.25;"/>
<a xlink:href="apf-0x6000009013b0.svg">
<rect x="328.600000" y="112.000000" width="103.200000" height="24.000000" rx="0" ry="0" style="stroke:#000000;fill:#FFFFFF;"/>
</a>
<a xlink:href="apf-0x6000009013b0.svg">
<text x="380.200000" y="126.000000" font-family="Verdana" font-size="7" text-anchor="middle" fill="#000000">apf(6257)(0.70710677f)</text>
</a>
<circle cx="330.600000" cy="114.000000" r="1"/>
<line x1="325.600000" y1="123.000000" x2="328.600000" y2="124.000000"  transform="rotate(0.000000,328.600000,124.000000)" style="stroke: black; stroke-width:0.25;"/>
<line x1="325.600000" y1="125.000000" x2="328.600000" y2="124.000000"  transform="rotate(0.000000,328.600000,124.000000)" style="stroke: black; stroke-width:0.25;"/>
<rect x="232.100000" y="192.000000" width="25.800000" height="24.000000" rx="0" ry="0" style="stroke:#000000;fill:#FFFFFF;"/>
<text x="245.000000" y="206.000000" font-family="Verdana" font-size="7" text-anchor="middle" fill="#000000">0.5f</text>
<circle cx="234.100000" cy="194.000000" r="1"/>
<rect x="265.900000" y="192.000000" width="25.800000" height="24.000000" rx="0" ry="0" style="stroke:#000000;fill:#FFFFFF;"/>
<text x="278.800000" y="206.000000" font-family="Verdana" font-size="7" text-anchor="middle" fill="#000000">sqrt</text>
<circle cx="267.900000" cy="194.000000" r="1"/>
<line x1="262.900000" y1="203.000000" x2="265.900000" y2="204.000000"  transform="rotate(0.000000,265.900000,204.000000)" style="stroke: black; stroke-width:0.25;"/>
<line x1="262.900000" y1="205.000000" x2="265.900000" y2="204.000000"  transform="rotate(0.000000,265.900000,204.000000)" style="stroke: black; stroke-width:0.25;"/>
<rect x="447.800000" y="128.000000" width="24.000000" height="24.000000" rx="0" ry="0" style="stroke:#000000;fill:#FFFFFF;"/>
<text x="459.800000" y="142.000000" font-family="Verdana" font-size="7" text-anchor="middle" fill="#000000">*</text>
<circle cx="449.800000" cy="130.000000" r="1"/>
<line x1="444.800000" y1="135.000000" x2="447.800000" y2="136.000000"  transform="rotate(0.000000,447.800000,136.000000)" style="stroke: black; stroke-width:0.25;"/>
<line x1="444.800000" y1="137.000000" x2="447.800000" y2="136.000000"  transform="rotate(0.000000,447.800000,136.000000)" style="stroke: black; stroke-width:0.25;"/>
<line x1="444.800000" y1="143.000000" x2="447.800000" y2="144.000000"  transform="rotate(0.000000,447.800000,144.000000)" style="stroke: black; stroke-width:0.25;"/>
<line x1="444.800000" y1="145.000000" x2="447.800000" y2="144.000000"  transform="rotate(0.000000,447.800000,144.000000)" style="stroke: black; stroke-width:0.25;"/>
<rect x="487.800000" y="108.000000" width="24.000000" height="24.000000" rx="0" ry="0" style="stroke:#000000;fill:#FFFFFF;"/>
<text x="499.800000" y="122.000000" font-family="Verdana" font-size="7" text-anchor="middle" fill="#000000">+</text>
<circle cx="489.800000" cy="110.000000" r="1"/>
<line x1="484.800000" y1="115.000000" x2="487.800000" y2="116.000000"  transform="rotate(0.000000,487.800000,116.000000)" style="stroke: black; stroke-width:0.25;"/>
<line x1="484.800000" y1="117.000000" x2="487.800000" y2="116.000000"  transform="rotate(0.000000,487.800000,116.000000)" style="stroke: black; stroke-width:0.25;"/>
<line x1="484.800000" y1="123.000000" x2="487.800000" y2="124.000000"  transform="rotate(0.000000,487.800000,124.000000)" style="stroke: black; stroke-width:0.25;"/>
<line x1="484.800000" y1="125.000000" x2="487.800000" y2="124.000000"  transform="rotate(0.000000,487.800000,124.000000)" style="stroke: black; stroke-width:0.25;"/>
<line x1="15.000000" y1="15.000000" x2="15.000000" y2="225.000000"  style="stroke: black; stroke-linecap:round; stroke-width:0.25; stroke-dasharray:3,3;"/>
<line x1="15.000000" y1="225.000000" x2="528.800000" y2="225.000000"  style="stroke: black; stroke-linecap:round; stroke-width:0.25; stroke-dasharray:3,3;"/>
<line x1="528.800000" y1="225.000000" x2="528.800000" y2="15.000000"  style="stroke: black; stroke-linecap:round; stroke-width:0.25; stroke-dasharray:3,3;"/>
<line x1="15.000000" y1="15.000000" x2="20.000000" y2="15.000000"  style="stroke: black; stroke-linecap:round; stroke-width:0.25; stroke-dasharray:3,3;"/>
<line x1="49.025000" y1="15.000000" x2="528.800000" y2="15.000000"  style="stroke: black; stroke-linecap:round; stroke-width:0.25; stroke-dasharray:3,3;"/>
<text x="20.000000" y="17.000000" font-family="Verdana" font-size="7">process</text>
<line x1="530.800000" y1="119.000000" x2="533.800000" y2="120.000000"  transform="rotate(0.000000,533.800000,120.000000)" style="stroke: black; stroke-width:0.25;"/>
<line x1="530.800000" y1="121.000000" x2="533.800000" y2="120.000000"  transform="rotate(0.000000,533.800000,120.000000)" style="stroke: black; stroke-width:0.25;"/>
<line x1="10.000000" y1="120.000000" x2="20.000000" y2="120.000000"  style="stroke:black; stroke-linecap:round; stroke-width:0.25;"/>
<line x1="20.000000" y1="120.000000" x2="24.000000" y2="120.000000"  style="stroke:black; stroke-linecap:round; stroke-width:0.25;"/>
<line x1="24.000000" y1="120.000000" x2="28.000000" y2="120.000000"  style="stroke:black; stroke-linecap:round; stroke-width:0.25;"/>
<line x1="28.000000" y1="120.000000" x2="28.000000" y2="120.000000"  style="stroke:black; stroke-linecap:round; stroke-width:0.25;"/>
<line x1="28.000000" y1="120.000000" x2="32.000000" y2="120.000000"  style="stroke:black; stroke-linecap:round; stroke-width:0.25;"/>
<line x1="32.000000" y1="120.000000" x2="36.000000" y2="120.000000"  style="stroke:black; stroke-linecap:round; stroke-width:0.25;"/>
<line x1="36.000000" y1="120.000000" x2="88.000000" y2="24.000000"  style="stroke:black; stroke-linecap:round; stroke-width:0.25;"/>
<line x1="36.000000" y1="120.000000" x2="88.000000" y2="76.000000"  style="stroke:black; stroke-linecap:round; stroke-width:0.25;"/>
<line x1="36.000000" y1="120.000000" x2="88.000000" y2="108.000000"  style="stroke:black; stroke-linecap:round; stroke-width:0.25;"/>
<line x1="36.000000" y1="120.000000" x2="88.000000" y2="140.000000"  style="stroke:black; stroke-linecap:round; stroke-width:0.25;"/>
<line x1="36.000000" y1="120.000000" x2="88.000000" y2="172.000000"  style="stroke:black; stroke-linecap:round; stroke-width:0.25;"/>
<line x1="88.000000" y1="24.000000" x2="228.100000" y2="24.000000"  style="stroke:black; stroke-linecap:round; stroke-width:0.25;"/>
<line x1="88.000000" y1="76.000000" x2="92.000000" y2="76.000000"  style="stroke:black; stroke-linecap:round; stroke-width:0.25;"/>
<line x1="88.000000" y1="108.000000" x2="92.000000" y2="108.000000"  style="stroke:black; stroke-linecap:round; stroke-width:0.25;"/>
<line x1="88.000000" y1="140.000000" x2="92.000000" y2="140.000000"  style="stroke:black; stroke-linecap:round; stroke-width:0.25;"/>
<line x1="88.000000" y1="172.000000" x2="92.000000" y2="172.000000"  style="stroke:black; stroke-linecap:round; stroke-width:0.25;"/>
<line x1="169.400000" y1="76.000000" x2="173.400000" y2="76.000000"  style="stroke:black; stroke-linecap:round; stroke-width:0.25;"/>
<line x1="169.400000" y1="108.000000" x2="173.400000" y2="108.000000"  style="stroke:black; stroke-linecap:round; stroke-width:0.25;"/>
<line x1="169.400000" y1="140.000000" x2="173.400000" y2="140.000000"  style="stroke:black; stroke-linecap:round; stroke-width:0.25;"/>
<line x1="169.400000" y1="172.000000" x2="173.400000" y2="172.000000"  style="stroke:black; stroke-linecap:round; stroke-width:0.25;"/>
<line x1="173.400000" y1="76.000000" x2="213.400000" y2="124.000000"  style="stroke:black; stroke-linecap:round; stroke-width:0.25;"/>
<line x1="173.400000" y1="108.000000" x2="213.400000" y2="124.000000"  style="stroke:black; stroke-linecap:round; stroke-width:0.25;"/>
<line x1="173.400000" y1="140.000000" x2="213.400000" y2="124.000000"  style="stroke:black; stroke-linecap:round; stroke-width:0.25;"/>
<line x1="173.400000" y1="172.000000" x2="213.400000" y2="124.000000"  style="stroke:black; stroke-linecap:round; stroke-width:0.25;"/>
<line x1="213.400000" y1="124.000000" x2="217.400000" y2="124.000000"  style="stroke:black; stroke-linecap:round; stroke-width:0.25;"/>
<line x1="228.100000" y1="24.000000" x2="261.900000" y2="24.000000"  style="stroke:black; stroke-linecap:round; stroke-width:0.25;"/>
<line x1="257.900000" y1="44.000000" x2="261.900000" y2="44.000000"  style="stroke:black; stroke-linecap:round; stroke-width:0.25;"/>
<line x1="257.900000" y1="204.000000" x2="261.900000" y2="204.000000"  style="stroke:black; stroke-linecap:round; stroke-width:0.25;"/>
<line x1="261.900000" y1="24.000000" x2="295.700000" y2="24.000000"  style="stroke:black; stroke-linecap:round; stroke-width:0.25;"/>
<line x1="261.900000" y1="44.000000" x2="261.900000" y2="44.000000"  style="stroke:black; stroke-linecap:round; stroke-width:0.25;"/>
<line x1="261.900000" y1="44.000000" x2="265.900000" y2="44.000000"  style="stroke:black; stroke-linecap:round; stroke-width:0.25;"/>
<line x1="261.900000" y1="204.000000" x2="261.900000" y2="204.000000"  style="stroke:black; stroke-linecap:round; stroke-width:0.25;"/>
<line x1="261.900000" y1="204.000000" x2="265.900000" y2="204.000000"  style="stroke:black; stroke-linecap:round; stroke-width:0.25;"/>
<line x1="291.700000" y1="44.000000" x2="295.700000" y2="44.000000"  style="stroke:black; stroke-linecap:round; stroke-width:0.25;"/>
<line x1="291.700000" y1="204.000000" x2="295.700000" y2="204.000000"  style="stroke:black; stroke-linecap:round; stroke-width:0.25;"/>
<line x1="295.700000" y1="24.000000" x2="303.700000" y2="24.000000"  style="stroke:black; stroke-linecap:round; stroke-width:0.25;"/>
<line x1="295.700000" y1="44.000000" x2="303.700000" y2="44.000000"  style="stroke:black; stroke-linecap:round; stroke-width:0.25;"/>
<line x1="295.700000" y1="204.000000" x2="435.800000" y2="204.000000"  style="stroke:black; stroke-linecap:round; stroke-width:0.25;"/>
<line x1="303.700000" y1="36.000000" x2="307.700000" y2="36.000000"  style="stroke:black; stroke-linecap:round; stroke-width:0.25;"/>
<line x1="303.700000" y1="44.000000" x2="307.700000" y2="44.000000"  style="stroke:black; stroke-linecap:round; stroke-width:0.25;"/>
<line x1="303.700000" y1="24.000000" x2="303.700000" y2="36.000000"  style="stroke:black; stroke-linecap:round; stroke-width:0.25;"/>
<line x1="303.700000" y1="36.000000" x2="303.700000" y2="36.000000"  style="stroke:black; stroke-linecap:round; stroke-width:0.25;"/>
<line x1="320.600000" y1="124.000000" x2="324.600000" y2="124.000000"  style="stroke:black; stroke-linecap:round; stroke-width:0.25;"/>
<line x1="324.600000" y1="124.000000" x2="324.600000" y2="124.000000"  style="stroke:black; stroke-linecap:round; stroke-width:0.25;"/>
<line x1="324.600000" y1="124.000000" x2="328.600000" y2="124.000000"  style="stroke:black; stroke-linecap:round; stroke-width:0.25;"/>
<line x1="331.700000" y1="40.000000" x2="335.700000" y2="40.000000"  style="stroke:black; stroke-linecap:round; stroke-width:0.25;"/>
<line x1="335.700000" y1="40.000000" x2="475.800000" y2="40.000000"  style="stroke:black; stroke-linecap:round; stroke-width:0.25;"/>
<line x1="431.800000" y1="124.000000" x2="435.800000" y2="124.000000"  style="stroke:black; stroke-linecap:round; stroke-width:0.25;"/>
<line x1="435.800000" y1="124.000000" x2="443.800000" y2="124.000000"  style="stroke:black; stroke-linecap:round; stroke-width:0.25;"/>
<line x1="435.800000" y1="144.000000" x2="443.800000" y2="144.000000"  style="stroke:black; stroke-linecap:round; stroke-width:0.25;"/>
<line x1="435.800000" y1="204.000000" x2="435.800000" y2="144.000000"  style="stroke:black; stroke-linecap:round; stroke-width:0.25;"/>
<line x1="435.800000" y1="204.000000" x2="435.800000" y2="204.000000"  style="stroke:black; stroke-linecap:round; stroke-width:0.25;"/>
<line x1="443.800000" y1="124.000000" x2="443.800000" y2="136.000000"  style="stroke:black; stroke-linecap:round; stroke-width:0.25;"/>
<line x1="443.800000" y1="136.000000" x2="443.800000" y2="136.000000"  style="stroke:black; stroke-linecap:round; stroke-width:0.25;"/>
<line x1="443.800000" y1="136.000000" x2="447.800000" y2="136.000000"  style="stroke:black; stroke-linecap:round; stroke-width:0.25;"/>
<line x1="443.800000" y1="144.000000" x2="447.800000" y2="144.000000"  style="stroke:black; stroke-linecap:round; stroke-width:0.25;"/>
<line x1="471.800000" y1="140.000000" x2="475.800000" y2="140.000000"  style="stroke:black; stroke-linecap:round; stroke-width:0.25;"/>
<line x1="475.800000" y1="40.000000" x2="483.800000" y2="40.000000"  style="stroke:black; stroke-linecap:round; stroke-width:0.25;"/>
<line x1="475.800000" y1="124.000000" x2="483.800000" y2="124.000000"  style="stroke:black; stroke-linecap:round; stroke-width:0.25;"/>
<line x1="475.800000" y1="140.000000" x2="475.800000" y2="124.000000"  style="stroke:black; stroke-linecap:round; stroke-width:0.25;"/>
<line x1="475.800000" y1="140.000000" x2="475.800000" y2="140.000000"  style="stroke:black; stroke-linecap:round; stroke-width:0.25;"/>
<line x1="483.800000" y1="40.000000" x2="483.800000" y2="116.000000"  style="stroke:black; stroke-linecap:round; stroke-width:0.25;"/>
<line x1="483.800000" y1="116.000000" x2="483.800000" y2="116.000000"  style="stroke:black; stroke-linecap:round; stroke-width:0.25;"/>
<line x1="483.800000" y1="116.000000" x2="487.800000" y2="116.000000"  style="stroke:black; stroke-linecap:round; stroke-width:0.25;"/>
<line x1="483.800000" y1="124.000000" x2="487.800000" y2="124.000000"  style="stroke:black; stroke-linecap:round; stroke-width:0.25;"/>
<line x1="511.800000" y1="120.000000" x2="515.800000" y2="120.000000"  style="stroke:black; stroke-linecap:round; stroke-width:0.25;"/>
<line x1="515.800000" y1="120.000000" x2="515.800000" y2="120.000000"  style="stroke:black; stroke-linecap:round; stroke-width:0.25;"/>
<line x1="515.800000" y1="120.000000" x2="519.800000" y2="120.000000"  style="stroke:black; stroke-linecap:round; stroke-width:0.25;"/>
<line x1="519.800000" y1="120.000000" x2="523.800000" y2="120.000000"  style="stroke:black; stroke-linecap:round; stroke-width:0.25;"/>
<line x1="523.800000" y1="120.000000" x2="533.800000" y2="120.000000"  style="stroke:black; stroke-linecap:round; stroke-width:0.25;"/>
</svg>
