<svg height="113" viewBox="0 0 204 113" width="204" xmlns="http://www.w3.org/2000/svg"><g fill="none" fill-rule="evenodd" transform="translate(.46875 .023438)"><g fill="#2c2e35"><path d="m71.6730469 6.1453125v-.03117187c0-2.99695313 2.2399219-5.47734375 5.3571094-5.47734375 1.92375 0 3.0726562.68132812 4.1324999 1.67882812l-.8149218.87726562c-.8950782-.84609375-1.8925781-1.45171874-3.3309375-1.45171874-2.3467969 0-4.1013281 1.90593749-4.1013281 4.34624999v.02671876c0 2.45367187 1.7678906 4.37742187 4.1013281 4.37742187 1.4517187 0 2.4091406-.56109375 3.42-1.531875l.7882031.77484375c-1.104375 1.11773435-2.315625 1.86140625-4.239375 1.86140625-3.0548437 0-5.3125781-2.40914063-5.3125781-5.450625zm10.5895312 0v-.03117187c0-2.92125001 2.1953907-5.47734375 5.4194532-5.47734375 3.2240624 0 5.3882812 2.52492187 5.3882812 5.45062499v.02671876c0 2.92124999-2.1953906 5.48179687-5.4194531 5.48179687s-5.3882813-2.529375-5.3882813-5.450625zm9.5653125 0v-.03117188c0-2.4046875-1.7545312-4.37296874-4.1770312-4.37296874s-4.1458594 1.93710937-4.1458594 4.34624999v.02671875c0 2.40914063 1.7545313 4.37742188 4.1770313 4.37742188 2.4180468 0 4.1458593-1.9415625 4.1458593-4.34625zm3.4867969-5.3259375h1.1221875l6.675234 8.49210937v-8.49210937h1.162266v10.5939844h-.952969l-6.8399998-8.6880469v8.6880469h-1.1667187zm10.9858595 9.04875.739219-.87726562c1.104375.99749999 2.164218 1.50070312 3.63375 1.50070312 1.420547 0 2.360156-.75703125 2.360156-1.80351563v-.03117187c0-.98414062-.529922-1.54078125-2.756485-2.0128125-2.435859-.52992187-3.553593-1.318125-3.553593-3.05484375v-.03117187c0-1.66546876 1.465078-2.89007813 3.47789-2.89007813 1.545235 0 2.64961.43640625 3.727266 1.3003125l-.699141.92179688c-.98414-.8015625-1.968281-1.14890625-3.054843-1.14890625-1.380469 0-2.257735.75703124-2.257735 1.71v.03117187c0 .9975.547735 1.55859375 2.876719 2.05734375 2.360156.5165625 3.451172 1.38046875 3.451172 2.99695313v.03117187c0 1.816875-1.514063 2.9969531-3.615938 2.9969531-1.683281 0-3.059296-.5610937-4.328437-1.6966406zm10.10414-9.04875h7.659376v1.09101562h-6.465938v3.6159375h5.784609v1.09101563h-5.784609v3.70499995h6.541641v1.0910157h-7.735079zm9.863672 0h4.555547c1.300313 0 2.342344.391875 3.010313 1.05539062.516562.5165625.819375 1.26023438.819375 2.08851563v.03117187c0 1.75898438-1.215703 2.78765625-2.876719 3.09046875l3.255234 4.32843753h-1.469531l-3.072656-4.11914065h-3.028125v4.11914065h-1.193438zm4.448672 5.40164063c1.589766 0 2.72086-.819375 2.72086-2.18203125v-.02671876c0-1.30476562-.9975-2.08851562-2.7075-2.08851562h-3.268594v4.29726563zm5.00086-5.40164063h1.331484l3.771797 9.12445312 3.785156-9.12445312h1.286953l-4.56 10.6696875h-1.059843z"/><path d="m150.110391.74367188h1.117734l4.827188 10.66968752h-1.282501l-1.242421-2.80101565h-5.766797l-1.255782 2.80101565h-1.229062zm2.947968 6.79546874-2.404687-5.40609375-2.4225 5.40609375zm6.247735-5.61539062h-3.558047v-1.104375h8.327344v1.104375h-3.558047v9.4896094h-1.21125zm5.535234 4.2215625v-.03117187c0-2.92125001 2.190938-5.47734375 5.415-5.47734375 3.224063 0 5.388281 2.52492187 5.388281 5.45062499v.02671876c0 2.92124999-2.190937 5.48179687-5.415 5.48179687-3.224062 0-5.388281-2.529375-5.388281-5.450625zm9.565313 0v-.03117188c0-2.4046875-1.754532-4.37296874-4.177032-4.37296874s-4.150312 1.93710937-4.150312 4.34624999v.02671875c0 2.40914063 1.758984 4.37742188 4.177031 4.37742188 2.4225 0 4.150313-1.9415625 4.150313-4.34625zm3.486797-5.3259375h4.555546c1.300313 0 2.346797.391875 3.010313 1.05539062.516562.5165625.819375 1.26023438.819375 2.08851563v.03117187c0 1.75898438-1.21125 2.78765625-2.876719 3.09046875l3.255235 4.32843753h-1.469532l-3.072656-4.11914065h-3.023672v4.11914065h-1.19789zm4.448671 5.40164063c1.589766 0 2.725313-.819375 2.725313-2.18203125v-.02671876c0-1.30476562-.9975-2.08851562-2.7075-2.08851562h-3.268594v4.29726563zm6.323438-5.40164063h1.193437v10.5939844h-1.193437zm3.553594 5.3259375v-.03117187c0-2.92125001 2.19539-5.47734375 5.419453-5.47734375 3.224062 0 5.388281 2.52492187 5.388281 5.45062499v.02671876c0 2.92124999-2.195391 5.48179687-5.419453 5.48179687-3.224063 0-5.388281-2.529375-5.388281-5.450625zm9.565312 0v-.03117188c0-2.4046875-1.754531-4.37296874-4.177031-4.37296874s-4.145859 1.93710937-4.145859 4.34624999v.02671875c0 2.40914063 1.754531 4.37742188 4.177031 4.37742188s4.145859-1.9415625 4.145859-4.34625zm-129.6393749 15.2608594h3.6738281c3.3309376 0 5.6332032 2.2844531 5.6332032 5.2680469v.0311718c0 2.9835938-2.3022656 5.2947656-5.6332032 5.2947656h-3.6738281zm3.6738281 9.4896093c2.6807813 0 4.3907813-1.8124218 4.3907813-4.1636718v-.0267188c0-2.3467969-1.71-4.1948437-4.3907813-4.1948437h-2.4803906v8.3852343zm8.3050782-9.4896093h1.1934375v10.5939843h-1.1934375zm8.9240625 0h1.21125l3.8564062 5.7801562 3.8608589-5.7801562h1.211251v10.5939843h-1.193438v-8.5811718l-3.8608594 5.6777344h-.0623437l-3.8564063-5.664375v8.5678124h-1.1667187zm13.0075781 6.163125v-6.163125h1.197891v6.0874219c0 2.2844531 1.21125 3.5714062 3.237422 3.5714062 1.954921 0 3.19289-1.1800781 3.19289-3.4957031v-6.163125h1.197891v6.0696094c0 3.0904687-1.772344 4.6935937-4.421953 4.6935937-2.618438 0-4.404141-1.603125-4.404141-4.6000781zm10.994766 2.8900781.743671-.8772656c1.104376.9975 2.164219 1.49625 3.633751 1.49625 1.420546 0 2.360156-.7570313 2.360156-1.7990625v-.0311719c0-.9841406-.529922-1.5452344-2.756485-2.0128125-2.435859-.5299219-3.553593-1.318125-3.553593-3.0592969v-.0311719c0-1.6654687 1.465078-2.8900781 3.47789-2.8900781 1.545235 0 2.64961.4408594 3.722813 1.3003125l-.694688.92625c-.98414-.8015625-1.968281-1.1533593-3.054843-1.1533593-1.380469 0-2.257735.7614843-2.257735 1.7144531v.0267187c0 1.0019532.543281 1.5585938 2.876719 2.0617969 2.360156.5121094 3.451172 1.3760156 3.451172 2.9925v.0311719c0 1.816875-1.514063 2.9969531-3.620391 2.9969531-1.678828 0-3.054844-.5566406-4.328437-1.6921875zm10.53164-9.0532031h1.193438v10.5939843h-1.193438zm3.869766 5.3303906v-.0311719c0-2.9969531 2.239922-5.4817969 5.357109-5.4817969 1.92375 0 3.07711.6813282 4.1325 1.6832813l-.814922.8772656c-.895078-.8505468-1.892578-1.4561719-3.330937-1.4561719-2.346797 0-4.101328 1.9103907-4.101328 4.3462501v.0311718c0 2.4492188 1.76789 4.3729688 4.101328 4.3729688 1.451719 0 2.409141-.5566407 3.42-1.5274219l.788203.7703906c-1.104375 1.1221875-2.315625 1.8614063-4.239375 1.8614063-3.054844 0-5.312578-2.4046875-5.312578-5.4461719z"/><path d="m147.051094 21.3304687h1.122187l4.827188 10.6696875h-1.286953l-1.242422-2.7965625h-5.766797l-1.255781 2.7965625h-1.22461zm2.952422 6.7954688-2.409141-5.4016406-2.418047 5.4016406zm-77.9252347 13.5909375h3.4467187l11.3421094 14.6374219v-14.6374219h3.6604687v21.1701562h-3.1171875l-11.6716406-15.0649218v15.0649218h-3.6604687zm24.1715624-.7303125h3.9321093v3.4778906h-3.9321093zm.1514063 5.9315625h3.660469v15.9644531h-3.660469zm8.198203 8.0735156v-.0623437c0-4.5332813 3.509063-8.3451563 8.287266-8.3451563 3.023672 0 4.898437 1.1177344 6.381328 2.7520313l-2.266641 2.4492187c-1.117734-1.1800781-2.297812-1.995-4.145859-1.995-2.658516 0-4.595625 2.2978125-4.595625 5.0810156v.0578907c0 2.8455469 1.968281 5.1433593 4.778203 5.1433593 1.723359 0 2.996953-.8193749 4.141406-1.995l2.20875 2.1775782c-1.571953 1.7500781-3.415547 2.9925-6.532734 2.9925-4.747031 0-8.256094-3.7183594-8.256094-8.2560938zm17.45625 0v-.0623437c0-4.5332813 3.509063-8.3451563 8.287266-8.3451563 3.023672 0 4.898437 1.1177344 6.381328 2.7520313l-2.266641 2.4492187c-1.122187-1.1800781-2.297812-1.995-4.145859-1.995-2.658516 0-4.595625 2.2978125-4.595625 5.0810156v.0578907c0 2.8455469 1.963828 5.1433593 4.778203 5.1433593 1.723359 0 2.9925-.8193749 4.141406-1.995l2.20875 2.1775782c-1.571953 1.7500781-3.415547 2.9925-6.532734 2.9925-4.747031 0-8.256094-3.7183594-8.256094-8.2560938z"/><path d="m139.511953 54.9916406v-.0623437c0-4.5644531 3.629297-8.3451563 8.527735-8.3451563 4.898437 0 8.501015 3.7183594 8.501015 8.2872657v.0578906c0 4.5377343-3.629297 8.3184375-8.558906 8.3184375-4.871719 0-8.469844-3.7183594-8.469844-8.2560938zm13.368281 0v-.0623437c0-2.8099219-2.026172-5.1389063-4.898437-5.1389063-2.934609 0-4.809375 2.2978125-4.809375 5.0810157v.0578906c0 2.7832031 2.026172 5.1433594 4.867266 5.1433594 2.965781 0 4.840546-2.3289844 4.840546-5.0810157zm8.233829-14.1832031h3.656015v22.0741406h-3.656015zm8.198203 14.1832031v-.0623437c0-4.5644531 3.629297-8.3451563 8.527734-8.3451563 4.898438 0 8.496563 3.7183594 8.496563 8.2872657v.0578906c0 4.5377343-3.624844 8.3184375-8.554454 8.3184375-4.871718 0-8.469843-3.7183594-8.469843-8.2560938zm3.47789-13.5775781 3.326485-1.4828906 3.143906 4.9607812h-2.752031zm9.890391 13.5775781v-.0623437c0-2.8099219-2.030625-5.1389063-4.898438-5.1389063-2.934609 0-4.813828 2.2978125-4.813828 5.0810157v.0578906c0 2.7832031 2.030625 5.1433594 4.871719 5.1433594 2.965781 0 4.840547-2.3289844 4.840547-5.0810157zm-110.6022657 15.5458594h8.3496093c4.9251563 0 8.0423438 2.814375 8.0423438 7.0804688v.0578906c0 4.7470312-3.811875 7.2274219-8.4698438 7.2274219h-4.1992969v6.8043749h-3.7228124zm8.0467968 11.008125c2.8099219 0 4.5644532-1.5719531 4.5644532-3.7807031v-.0578907c0-2.4803906-1.7857032-3.7807031-4.5644532-3.7807031h-4.3239844v7.6192969zm12.4375782-11.7339844h3.9321093v3.4778907h-3.9321093zm.1469531 5.9271094h3.6604687v15.9689062h-3.6604687zm8.2026566 8.0779688v-.0623438c0-4.5377344 3.504609-8.3451562 8.282812-8.3451562 3.028125 0 4.902891 1.1177343 6.381328 2.7475781l-2.26664 2.4536719c-1.117735-1.1800782-2.297813-1.9994532-4.141407-1.9994532-2.662968 0-4.600078 2.2978125-4.600078 5.0810156v.0623438c0 2.8410938 1.968282 5.1389063 4.778203 5.1389063 1.727813 0 2.996953-.8149219 4.14586-1.9950001l2.20875 2.1775782c-1.576407 1.7545312-3.42 2.9969531-6.532735 2.9969531-4.751484 0-8.256093-3.7228125-8.256093-8.2560937zm17.451797 0v-.0623438c0-4.5377344 3.509062-8.3451562 8.287265-8.3451562 3.023672 0 4.898438 1.1177343 6.381328 2.7475781l-2.26664 2.4536719c-1.117735-1.1800782-2.297813-1.9994532-4.14586-1.9994532-2.658515 0-4.595625 2.2978125-4.595625 5.0810156v.0623438c0 2.8410938 1.968282 5.1389063 4.778203 5.1389063 1.72336 0 2.996954-.8149219 4.14586-1.9950001l2.204297 2.1775782c-1.571953 1.7545312-3.415547 2.9969531-6.532735 2.9969531-4.747031 0-8.256093-3.7228125-8.256093-8.2560937zm18.850078-14.0050782h3.927656v3.4778907h-3.927656zm.151406 5.9271094h3.656016v15.9689062h-3.656016zm9.075469 0h3.660468v2.4803906c1.024219-1.5096094 2.50711-2.8099218 4.9875-2.8099218 3.598125 0 5.686641 2.4180468 5.686641 6.1364062v10.1620312h-3.660469v-9.0710156c0-2.4803906-1.237969-3.9009375-3.415547-3.9009375-2.119687 0-3.598125 1.4784375-3.598125 3.9588281v9.013125h-3.660468zm19.393359 0h3.656016v2.4803906c1.028672-1.5096094 2.511562-2.8099218 4.991953-2.8099218 3.598125 0 5.682187 2.4180468 5.682187 6.1364062v10.1620312h-3.656015v-9.0710156c0-2.4803906-1.242422-3.9009375-3.42-3.9009375-2.115235 0-3.598125 1.4784375-3.598125 3.9588281v9.013125h-3.656016zm19.45125-5.9271094h3.932109v3.4778907h-3.932109zm.151406 5.9271094h3.660469v15.9689062h-3.660469zm-113.2919529 26.171016h4.5065625c1.21125 0 2.1642188.351796 2.7698438.939609.4408593.454219.6813281 1.015313.6813281 1.696641v.031172c0 1.376015-.8460938 2.088515-1.6788281 2.449218 1.2557812.378516 2.2710937 1.104375 2.2710937 2.560547v.026719c0 1.816875-1.531875 2.894531-3.8430468 2.894531h-4.7069532zm4.310625 4.724765c1.4383594 0 2.4358594-.650156 2.4358594-1.892578v-.031172c0-1.042031-.8327344-1.723359-2.3467969-1.723359h-3.2196094v3.647109zm.4230469 4.796016c1.603125 0 2.6050781-.708047 2.6050781-1.892578v-.026719c0-1.153359-.9663281-1.816875-2.814375-1.816875h-3.3442969v3.736172z"/><path d="m88.1496094 101.834063 4.8271875 10.67414h-1.2825l-1.2424219-2.801015h-5.7667969l-1.2602343 2.801015h-1.2246094l4.8271875-10.67414zm-2.9969531 6.799921h4.8316406l-2.4091406-5.406093zm9.9527343-6.724218h4.5555469c1.3003125 0 2.3467965.396328 3.0103125 1.059843.516563.516563.819375 1.260235.819375 2.088516v.031172c0 1.754531-1.21125 2.787656-2.876719 3.090469l3.255235 4.328437h-1.469532l-3.0726559-4.11914h-3.028125v4.11914h-1.1934375zm4.4486719 5.406093c1.5897655 0 2.7253125-.819375 2.7253125-2.182031v-.026719c0-1.304765-.9975-2.088515-2.7075-2.088515h-3.2730469v4.297265zm6.6396095-5.406093h1.193437v10.598437h-1.193437z"/></g><path d="m48.3119531 41.9350781v-41.51648435h-3.6649218v41.51648435c-3.8163282.8460938-6.6975001 4.2571875-6.6975001 8.3184375v41.4897657h3.6649219v-41.4897657c0-2.6807812 2.1820313-4.8628125 4.8672656-4.8628125 2.6807813 0 4.8628126 2.1820313 4.8628126 4.8628125v41.4897657h3.6649218v-41.4897657c0-4.06125-2.8811718-7.4723437-6.6975-8.3184375zm-37.7892187 0v-41.51648435h-3.6649219v41.51648435c-3.81632813.8460938-6.6975 4.2571875-6.6975 8.3184375v41.4897657h3.66492187v-41.4897657c0-2.6807812 2.18203125-4.8628125 4.86726563-4.8628125 2.6807812 0 4.8628125 2.1820313 4.8628125 4.8628125v41.4897657h3.6649219v-41.4897657c0-4.06125-2.8811719-7.4723437-6.6975-8.3184375zm21.9271875-.0222656c0 2.6807813-2.1820313 4.8628125-4.8628125 4.8628125-2.6852344 0-4.8672657-2.1820312-4.8672657-4.8628125v-41.49421875h-3.6649218v41.49421875c0 4.06125 2.8811718 7.4723438 6.6975 8.3184375v41.5120313h3.6649218v-41.5120313c3.8163282-.8460937 6.6975-4.2571875 6.6975-8.3184375v-41.49421875h-3.6649218z" fill="#0067b7" fill-rule="nonzero"/></g></svg>