<?xml version="1.0"?>
<svg xmlns="http://www.w3.org/2000/svg" xmlns:xlink="http://www.w3.org/1999/xlink" viewBox="0 0 612.900000 96.000000" width="306.450000mm" height="48.000000mm" version="1.1">
<a xlink:href="process.svg">
<rect x="0.000000" y="0.000000" width="611.900000" height="95.000000" rx="0" ry="0" style="stroke:#000000;fill:#FFFFFF;"/>
</a>
<text x="10.000000" y="7.000000" font-family="Verdana" font-size="7"></text>
<rect x="32.000000" y="36.000000" width="38.700000" height="24.000000" rx="0" ry="0" style="stroke:#000000;fill:#FFFFFF;"/>
<text x="51.350000" y="50.000000" font-family="Verdana" font-size="7" text-anchor="middle" fill="#000000">[2] PM2</text>
<circle cx="34.000000" cy="38.000000" r="1"/>
<rect x="86.700000" y="40.000000" width="24.000000" height="24.000000" rx="0" ry="0" style="stroke:#000000;fill:#FFFFFF;"/>
<text x="98.700000" y="54.000000" font-family="Verdana" font-size="7" text-anchor="middle" fill="#000000">+</text>
<circle cx="88.700000" cy="42.000000" r="1"/>
<line x1="83.700000" y1="47.000000" x2="86.700000" y2="48.000000"  transform="rotate(0.000000,86.700000,48.000000)" style="stroke: black; stroke-width:0.25;"/>
<line x1="83.700000" y1="49.000000" x2="86.700000" y2="48.000000"  transform="rotate(0.000000,86.700000,48.000000)" style="stroke: black; stroke-width:0.25;"/>
<line x1="83.700000" y1="55.000000" x2="86.700000" y2="56.000000"  transform="rotate(0.000000,86.700000,56.000000)" style="stroke: black; stroke-width:0.25;"/>
<line x1="83.700000" y1="57.000000" x2="86.700000" y2="56.000000"  transform="rotate(0.000000,86.700000,56.000000)" style="stroke: black; stroke-width:0.25;"/>
<rect x="126.700000" y="44.000000" width="51.600000" height="24.000000" rx="0" ry="0" style="stroke:#000000;fill:#FFFFFF;"/>
<text x="152.500000" y="58.000000" font-family="Verdana" font-size="7" text-anchor="middle" fill="#000000">-0.70710677f</text>
<circle cx="128.700000" cy="46.000000" r="1"/>
<rect x="194.300000" y="40.000000" width="24.000000" height="24.000000" rx="0" ry="0" style="stroke:#000000;fill:#FFFFFF;"/>
<text x="206.300000" y="54.000000" font-family="Verdana" font-size="7" text-anchor="middle" fill="#000000">*</text>
<circle cx="196.300000" cy="42.000000" r="1"/>
<line x1="191.300000" y1="47.000000" x2="194.300000" y2="48.000000"  transform="rotate(0.000000,194.300000,48.000000)" style="stroke: black; stroke-width:0.25;"/>
<line x1="191.300000" y1="49.000000" x2="194.300000" y2="48.000000"  transform="rotate(0.000000,194.300000,48.000000)" style="stroke: black; stroke-width:0.25;"/>
<line x1="191.300000" y1="55.000000" x2="194.300000" y2="56.000000"  transform="rotate(0.000000,194.300000,56.000000)" style="stroke: black; stroke-width:0.25;"/>
<line x1="191.300000" y1="57.000000" x2="194.300000" y2="56.000000"  transform="rotate(0.000000,194.300000,56.000000)" style="stroke: black; stroke-width:0.25;"/>
<rect x="248.300000" y="40.000000" width="38.700000" height="24.000000" rx="0" ry="0" style="stroke:#000000;fill:#FFFFFF;"/>
<text x="267.650000" y="54.000000" font-family="Verdana" font-size="7" text-anchor="middle" fill="#000000">[2] PM2</text>
<circle cx="250.300000" cy="42.000000" r="1"/>
<rect x="303.000000" y="36.000000" width="24.000000" height="24.000000" rx="0" ry="0" style="stroke:#000000;fill:#FFFFFF;"/>
<text x="315.000000" y="50.000000" font-family="Verdana" font-size="7" text-anchor="middle" fill="#000000">+</text>
<circle cx="305.000000" cy="38.000000" r="1"/>
<line x1="300.000000" y1="43.000000" x2="303.000000" y2="44.000000"  transform="rotate(0.000000,303.000000,44.000000)" style="stroke: black; stroke-width:0.25;"/>
<line x1="300.000000" y1="45.000000" x2="303.000000" y2="44.000000"  transform="rotate(0.000000,303.000000,44.000000)" style="stroke: black; stroke-width:0.25;"/>
<line x1="300.000000" y1="51.000000" x2="303.000000" y2="52.000000"  transform="rotate(0.000000,303.000000,52.000000)" style="stroke: black; stroke-width:0.25;"/>
<line x1="300.000000" y1="53.000000" x2="303.000000" y2="52.000000"  transform="rotate(0.000000,303.000000,52.000000)" style="stroke: black; stroke-width:0.25;"/>
<a xlink:href="delay-0x6000013f5710.svg">
<rect x="343.000000" y="36.000000" width="141.900000" height="24.000000" rx="0" ry="0" style="stroke:#000000;fill:#FFFFFF;"/>
</a>
<a xlink:href="delay-0x6000013f5710.svg">
<text x="413.950000" y="50.000000" font-family="Verdana" font-size="7" text-anchor="middle" fill="#000000">delay(1.92e+0...: max) : min)(0)</text>
</a>
<circle cx="345.000000" cy="38.000000" r="1"/>
<line x1="340.000000" y1="47.000000" x2="343.000000" y2="48.000000"  transform="rotate(0.000000,343.000000,48.000000)" style="stroke: black; stroke-width:0.25;"/>
<line x1="340.000000" y1="49.000000" x2="343.000000" y2="48.000000"  transform="rotate(0.000000,343.000000,48.000000)" style="stroke: black; stroke-width:0.25;"/>
<polygon fill="#ffffff" stroke="black" stroke-width=".25" points="264.450012,20.500000 255.449997,24.000000 264.450012,27.500000"/>
<circle  fill="#ffffff" stroke="black" stroke-width=".25" cx="253.949997" cy="24.000000" r="1.500000"/>
<line x1="486.900000" y1="48.000000" x2="486.900000" y2="44.000000"  style="stroke:black; stroke-linecap:round; stroke-width:0.25;"/>
<line x1="486.900000" y1="44.000000" x2="490.900000" y2="44.000000"  style="stroke:black; stroke-linecap:round; stroke-width:0.25;"/>
<line x1="490.900000" y1="44.000000" x2="490.900000" y2="48.000000"  style="stroke:black; stroke-linecap:round; stroke-width:0.25;"/>
<rect x="516.900000" y="32.000000" width="24.000000" height="24.000000" rx="0" ry="0" style="stroke:#000000;fill:#FFFFFF;"/>
<text x="528.900000" y="46.000000" font-family="Verdana" font-size="7" text-anchor="middle" fill="#000000">mem</text>
<circle cx="518.900000" cy="34.000000" r="1"/>
<line x1="513.900000" y1="43.000000" x2="516.900000" y2="44.000000"  transform="rotate(0.000000,516.900000,44.000000)" style="stroke: black; stroke-width:0.25;"/>
<line x1="513.900000" y1="45.000000" x2="516.900000" y2="44.000000"  transform="rotate(0.000000,516.900000,44.000000)" style="stroke: black; stroke-width:0.25;"/>
<rect x="556.900000" y="36.000000" width="24.000000" height="24.000000" rx="0" ry="0" style="stroke:#000000;fill:#FFFFFF;"/>
<text x="568.900000" y="50.000000" font-family="Verdana" font-size="7" text-anchor="middle" fill="#000000">+</text>
<circle cx="558.900000" cy="38.000000" r="1"/>
<line x1="553.900000" y1="43.000000" x2="556.900000" y2="44.000000"  transform="rotate(0.000000,556.900000,44.000000)" style="stroke: black; stroke-width:0.25;"/>
<line x1="553.900000" y1="45.000000" x2="556.900000" y2="44.000000"  transform="rotate(0.000000,556.900000,44.000000)" style="stroke: black; stroke-width:0.25;"/>
<line x1="553.900000" y1="51.000000" x2="556.900000" y2="52.000000"  transform="rotate(0.000000,556.900000,52.000000)" style="stroke: black; stroke-width:0.25;"/>
<line x1="553.900000" y1="53.000000" x2="556.900000" y2="52.000000"  transform="rotate(0.000000,556.900000,52.000000)" style="stroke: black; stroke-width:0.25;"/>
<line x1="15.000000" y1="15.000000" x2="15.000000" y2="81.000000"  style="stroke: black; stroke-linecap:round; stroke-width:0.25; stroke-dasharray:3,3;"/>
<line x1="15.000000" y1="81.000000" x2="597.900000" y2="81.000000"  style="stroke: black; stroke-linecap:round; stroke-width:0.25; stroke-dasharray:3,3;"/>
<line x1="597.900000" y1="81.000000" x2="597.900000" y2="15.000000"  style="stroke: black; stroke-linecap:round; stroke-width:0.25; stroke-dasharray:3,3;"/>
<line x1="15.000000" y1="15.000000" x2="20.000000" y2="15.000000"  style="stroke: black; stroke-linecap:round; stroke-width:0.25; stroke-dasharray:3,3;"/>
<line x1="100.625000" y1="15.000000" x2="597.900000" y2="15.000000"  style="stroke: black; stroke-linecap:round; stroke-width:0.25; stroke-dasharray:3,3;"/>
<text x="20.000000" y="17.000000" font-family="Verdana" font-size="7">apf(1)(0.70710677f)(x2)</text>
<line x1="599.900000" y1="47.000000" x2="602.900000" y2="48.000000"  transform="rotate(0.000000,602.900000,48.000000)" style="stroke: black; stroke-width:0.25;"/>
<line x1="599.900000" y1="49.000000" x2="602.900000" y2="48.000000"  transform="rotate(0.000000,602.900000,48.000000)" style="stroke: black; stroke-width:0.25;"/>
<line x1="28.000000" y1="68.000000" x2="51.350000" y2="68.000000"  style="stroke:black; stroke-linecap:round; stroke-width:0.25;"/>
<line x1="28.000000" y1="24.000000" x2="28.000000" y2="24.000000"  style="stroke:black; stroke-linecap:round; stroke-width:0.25;"/>
<line x1="28.000000" y1="24.000000" x2="28.000000" y2="68.000000"  style="stroke:black; stroke-linecap:round; stroke-width:0.25;"/>
<line x1="28.000000" y1="68.000000" x2="28.000000" y2="68.000000"  style="stroke:black; stroke-linecap:round; stroke-width:0.25;"/>
<line x1="51.350000" y1="68.000000" x2="74.700000" y2="68.000000"  style="stroke:black; stroke-linecap:round; stroke-width:0.25;"/>
<line x1="70.700000" y1="48.000000" x2="74.700000" y2="48.000000"  style="stroke:black; stroke-linecap:round; stroke-width:0.25;"/>
<line x1="74.700000" y1="48.000000" x2="82.700000" y2="48.000000"  style="stroke:black; stroke-linecap:round; stroke-width:0.25;"/>
<line x1="74.700000" y1="56.000000" x2="82.700000" y2="56.000000"  style="stroke:black; stroke-linecap:round; stroke-width:0.25;"/>
<line x1="74.700000" y1="68.000000" x2="74.700000" y2="56.000000"  style="stroke:black; stroke-linecap:round; stroke-width:0.25;"/>
<line x1="74.700000" y1="68.000000" x2="74.700000" y2="68.000000"  style="stroke:black; stroke-linecap:round; stroke-width:0.25;"/>
<line x1="82.700000" y1="48.000000" x2="86.700000" y2="48.000000"  style="stroke:black; stroke-linecap:round; stroke-width:0.25;"/>
<line x1="82.700000" y1="56.000000" x2="86.700000" y2="56.000000"  style="stroke:black; stroke-linecap:round; stroke-width:0.25;"/>
<line x1="110.700000" y1="52.000000" x2="114.700000" y2="52.000000"  style="stroke:black; stroke-linecap:round; stroke-width:0.25;"/>
<line x1="114.700000" y1="36.000000" x2="122.700000" y2="36.000000"  style="stroke:black; stroke-linecap:round; stroke-width:0.25;"/>
<line x1="114.700000" y1="52.000000" x2="114.700000" y2="36.000000"  style="stroke:black; stroke-linecap:round; stroke-width:0.25;"/>
<line x1="114.700000" y1="52.000000" x2="114.700000" y2="52.000000"  style="stroke:black; stroke-linecap:round; stroke-width:0.25;"/>
<line x1="122.700000" y1="36.000000" x2="152.500000" y2="36.000000"  style="stroke:black; stroke-linecap:round; stroke-width:0.25;"/>
<line x1="152.500000" y1="36.000000" x2="182.300000" y2="36.000000"  style="stroke:black; stroke-linecap:round; stroke-width:0.25;"/>
<line x1="178.300000" y1="56.000000" x2="182.300000" y2="56.000000"  style="stroke:black; stroke-linecap:round; stroke-width:0.25;"/>
<line x1="182.300000" y1="56.000000" x2="190.300000" y2="56.000000"  style="stroke:black; stroke-linecap:round; stroke-width:0.25;"/>
<line x1="182.300000" y1="36.000000" x2="190.300000" y2="36.000000"  style="stroke:black; stroke-linecap:round; stroke-width:0.25;"/>
<line x1="190.300000" y1="48.000000" x2="194.300000" y2="48.000000"  style="stroke:black; stroke-linecap:round; stroke-width:0.25;"/>
<line x1="190.300000" y1="56.000000" x2="194.300000" y2="56.000000"  style="stroke:black; stroke-linecap:round; stroke-width:0.25;"/>
<line x1="190.300000" y1="36.000000" x2="190.300000" y2="48.000000"  style="stroke:black; stroke-linecap:round; stroke-width:0.25;"/>
<line x1="190.300000" y1="48.000000" x2="190.300000" y2="48.000000"  style="stroke:black; stroke-linecap:round; stroke-width:0.25;"/>
<line x1="218.300000" y1="52.000000" x2="222.300000" y2="52.000000"  style="stroke:black; stroke-linecap:round; stroke-width:0.25;"/>
<line x1="222.300000" y1="52.000000" x2="244.300000" y2="32.000000"  style="stroke:black; stroke-linecap:round; stroke-width:0.25;"/>
<line x1="222.300000" y1="52.000000" x2="244.300000" y2="72.000000"  style="stroke:black; stroke-linecap:round; stroke-width:0.25;"/>
<line x1="244.300000" y1="32.000000" x2="267.650000" y2="32.000000"  style="stroke:black; stroke-linecap:round; stroke-width:0.25;"/>
<line x1="244.300000" y1="72.000000" x2="287.650000" y2="72.000000"  style="stroke:black; stroke-linecap:round; stroke-width:0.25;"/>
<line x1="248.450000" y1="24.000000" x2="28.000000" y2="24.000000"  style="stroke:black; stroke-linecap:round; stroke-width:0.25;"/>
<line x1="252.450000" y1="24.000000" x2="248.450000" y2="24.000000"  style="stroke:black; stroke-linecap:round; stroke-width:0.25;"/>
<line x1="267.650000" y1="32.000000" x2="291.000000" y2="32.000000"  style="stroke:black; stroke-linecap:round; stroke-width:0.25;"/>
<line x1="268.450000" y1="24.000000" x2="264.450000" y2="24.000000"  style="stroke:black; stroke-linecap:round; stroke-width:0.25;"/>
<line x1="287.000000" y1="52.000000" x2="291.000000" y2="52.000000"  style="stroke:black; stroke-linecap:round; stroke-width:0.25;"/>
<line x1="287.650000" y1="72.000000" x2="331.000000" y2="72.000000"  style="stroke:black; stroke-linecap:round; stroke-width:0.25;"/>
<line x1="291.000000" y1="32.000000" x2="299.000000" y2="32.000000"  style="stroke:black; stroke-linecap:round; stroke-width:0.25;"/>
<line x1="291.000000" y1="52.000000" x2="299.000000" y2="52.000000"  style="stroke:black; stroke-linecap:round; stroke-width:0.25;"/>
<line x1="299.000000" y1="32.000000" x2="299.000000" y2="44.000000"  style="stroke:black; stroke-linecap:round; stroke-width:0.25;"/>
<line x1="299.000000" y1="44.000000" x2="299.000000" y2="44.000000"  style="stroke:black; stroke-linecap:round; stroke-width:0.25;"/>
<line x1="299.000000" y1="44.000000" x2="303.000000" y2="44.000000"  style="stroke:black; stroke-linecap:round; stroke-width:0.25;"/>
<line x1="299.000000" y1="52.000000" x2="303.000000" y2="52.000000"  style="stroke:black; stroke-linecap:round; stroke-width:0.25;"/>
<line x1="327.000000" y1="48.000000" x2="331.000000" y2="48.000000"  style="stroke:black; stroke-linecap:round; stroke-width:0.25;"/>
<line x1="331.000000" y1="48.000000" x2="339.000000" y2="48.000000"  style="stroke:black; stroke-linecap:round; stroke-width:0.25;"/>
<line x1="331.000000" y1="68.000000" x2="339.000000" y2="68.000000"  style="stroke:black; stroke-linecap:round; stroke-width:0.25;"/>
<line x1="331.000000" y1="72.000000" x2="331.000000" y2="68.000000"  style="stroke:black; stroke-linecap:round; stroke-width:0.25;"/>
<line x1="331.000000" y1="72.000000" x2="331.000000" y2="72.000000"  style="stroke:black; stroke-linecap:round; stroke-width:0.25;"/>
<line x1="339.000000" y1="48.000000" x2="343.000000" y2="48.000000"  style="stroke:black; stroke-linecap:round; stroke-width:0.25;"/>
<line x1="339.000000" y1="68.000000" x2="413.950000" y2="68.000000"  style="stroke:black; stroke-linecap:round; stroke-width:0.25;"/>
<line x1="413.950000" y1="68.000000" x2="488.900000" y2="68.000000"  style="stroke:black; stroke-linecap:round; stroke-width:0.25;"/>
<line x1="484.900000" y1="48.000000" x2="488.900000" y2="48.000000"  style="stroke:black; stroke-linecap:round; stroke-width:0.25;"/>
<line x1="488.900000" y1="24.000000" x2="268.450000" y2="24.000000"  style="stroke:black; stroke-linecap:round; stroke-width:0.25;"/>
<line x1="488.900000" y1="24.000000" x2="488.900000" y2="24.000000"  style="stroke:black; stroke-linecap:round; stroke-width:0.25;"/>
<line x1="488.900000" y1="44.000000" x2="488.900000" y2="24.000000"  style="stroke:black; stroke-linecap:round; stroke-width:0.25;"/>
<line x1="488.900000" y1="48.000000" x2="490.900000" y2="48.000000"  style="stroke:black; stroke-linecap:round; stroke-width:0.25;"/>
<line x1="488.900000" y1="68.000000" x2="496.900000" y2="68.000000"  style="stroke:black; stroke-linecap:round; stroke-width:0.25;"/>
<line x1="490.900000" y1="48.000000" x2="496.900000" y2="48.000000"  style="stroke:black; stroke-linecap:round; stroke-width:0.25;"/>
<line x1="496.900000" y1="44.000000" x2="512.900000" y2="44.000000"  style="stroke:black; stroke-linecap:round; stroke-width:0.25;"/>
<line x1="496.900000" y1="48.000000" x2="496.900000" y2="44.000000"  style="stroke:black; stroke-linecap:round; stroke-width:0.25;"/>
<line x1="496.900000" y1="48.000000" x2="496.900000" y2="48.000000"  style="stroke:black; stroke-linecap:round; stroke-width:0.25;"/>
<line x1="496.900000" y1="68.000000" x2="504.900000" y2="68.000000"  style="stroke:black; stroke-linecap:round; stroke-width:0.25;"/>
<line x1="504.900000" y1="64.000000" x2="512.900000" y2="64.000000"  style="stroke:black; stroke-linecap:round; stroke-width:0.25;"/>
<line x1="504.900000" y1="68.000000" x2="504.900000" y2="64.000000"  style="stroke:black; stroke-linecap:round; stroke-width:0.25;"/>
<line x1="512.900000" y1="44.000000" x2="516.900000" y2="44.000000"  style="stroke:black; stroke-linecap:round; stroke-width:0.25;"/>
<line x1="512.900000" y1="64.000000" x2="528.900000" y2="64.000000"  style="stroke:black; stroke-linecap:round; stroke-width:0.25;"/>
<line x1="528.900000" y1="64.000000" x2="544.900000" y2="64.000000"  style="stroke:black; stroke-linecap:round; stroke-width:0.25;"/>
<line x1="540.900000" y1="44.000000" x2="544.900000" y2="44.000000"  style="stroke:black; stroke-linecap:round; stroke-width:0.25;"/>
<line x1="544.900000" y1="44.000000" x2="552.900000" y2="44.000000"  style="stroke:black; stroke-linecap:round; stroke-width:0.25;"/>
<line x1="544.900000" y1="52.000000" x2="552.900000" y2="52.000000"  style="stroke:black; stroke-linecap:round; stroke-width:0.25;"/>
<line x1="544.900000" y1="64.000000" x2="544.900000" y2="52.000000"  style="stroke:black; stroke-linecap:round; stroke-width:0.25;"/>
<line x1="544.900000" y1="64.000000" x2="544.900000" y2="64.000000"  style="stroke:black; stroke-linecap:round; stroke-width:0.25;"/>
<line x1="552.900000" y1="44.000000" x2="556.900000" y2="44.000000"  style="stroke:black; stroke-linecap:round; stroke-width:0.25;"/>
<line x1="552.900000" y1="52.000000" x2="556.900000" y2="52.000000"  style="stroke:black; stroke-linecap:round; stroke-width:0.25;"/>
<line x1="580.900000" y1="48.000000" x2="584.900000" y2="48.000000"  style="stroke:black; stroke-linecap:round; stroke-width:0.25;"/>
<line x1="584.900000" y1="48.000000" x2="584.900000" y2="48.000000"  style="stroke:black; stroke-linecap:round; stroke-width:0.25;"/>
<line x1="584.900000" y1="48.000000" x2="588.900000" y2="48.000000"  style="stroke:black; stroke-linecap:round; stroke-width:0.25;"/>
<line x1="588.900000" y1="48.000000" x2="592.900000" y2="48.000000"  style="stroke:black; stroke-linecap:round; stroke-width:0.25;"/>
<line x1="592.900000" y1="48.000000" x2="602.900000" y2="48.000000"  style="stroke:black; stroke-linecap:round; stroke-width:0.25;"/>
</svg>
