<?xml version="1.0"?>
<svg xmlns="http://www.w3.org/2000/svg" xmlns:xlink="http://www.w3.org/1999/xlink" viewBox="0 0 856.500000 108.000000" width="428.250000mm" height="54.000000mm" version="1.1">
<rect x="0.000000" y="0.000000" width="855.500000" height="107.000000" rx="0" ry="0" style="stroke:#000000;fill:#FFFFFF;"/>
<text x="10.000000" y="7.000000" font-family="Verdana" font-size="7"></text>
<rect x="32.000000" y="42.000000" width="38.700000" height="24.000000" rx="0" ry="0" style="stroke:#000000;fill:#FFFFFF;"/>
<text x="51.350000" y="56.000000" font-family="Verdana" font-size="7" text-anchor="middle" fill="#000000">[1] PM1</text>
<circle cx="34.000000" cy="44.000000" r="1"/>
<line x1="29.000000" y1="53.000000" x2="32.000000" y2="54.000000"  transform="rotate(0.000000,32.000000,54.000000)" style="stroke: black; stroke-width:0.25;"/>
<line x1="29.000000" y1="55.000000" x2="32.000000" y2="54.000000"  transform="rotate(0.000000,32.000000,54.000000)" style="stroke: black; stroke-width:0.25;"/>
<rect x="86.700000" y="42.000000" width="38.700000" height="24.000000" rx="0" ry="0" style="stroke:#000000;fill:#FFFFFF;"/>
<text x="106.050000" y="56.000000" font-family="Verdana" font-size="7" text-anchor="middle" fill="#000000">[1] PM1</text>
<circle cx="88.700000" cy="44.000000" r="1"/>
<rect x="141.400000" y="46.000000" width="24.000000" height="24.000000" rx="0" ry="0" style="stroke:#000000;fill:#FFFFFF;"/>
<text x="153.400000" y="60.000000" font-family="Verdana" font-size="7" text-anchor="middle" fill="#000000">+</text>
<circle cx="143.400000" cy="48.000000" r="1"/>
<line x1="138.400000" y1="53.000000" x2="141.400000" y2="54.000000"  transform="rotate(0.000000,141.400000,54.000000)" style="stroke: black; stroke-width:0.25;"/>
<line x1="138.400000" y1="55.000000" x2="141.400000" y2="54.000000"  transform="rotate(0.000000,141.400000,54.000000)" style="stroke: black; stroke-width:0.25;"/>
<line x1="138.400000" y1="61.000000" x2="141.400000" y2="62.000000"  transform="rotate(0.000000,141.400000,62.000000)" style="stroke: black; stroke-width:0.25;"/>
<line x1="138.400000" y1="63.000000" x2="141.400000" y2="62.000000"  transform="rotate(0.000000,141.400000,62.000000)" style="stroke: black; stroke-width:0.25;"/>
<rect x="181.400000" y="50.000000" width="51.600000" height="24.000000" rx="0" ry="0" style="stroke:#000000;fill:#FFFFFF;"/>
<text x="207.200000" y="64.000000" font-family="Verdana" font-size="7" text-anchor="middle" fill="#000000">-0.70710677f</text>
<circle cx="183.400000" cy="52.000000" r="1"/>
<rect x="249.000000" y="46.000000" width="24.000000" height="24.000000" rx="0" ry="0" style="stroke:#000000;fill:#FFFFFF;"/>
<text x="261.000000" y="60.000000" font-family="Verdana" font-size="7" text-anchor="middle" fill="#000000">*</text>
<circle cx="251.000000" cy="48.000000" r="1"/>
<line x1="246.000000" y1="53.000000" x2="249.000000" y2="54.000000"  transform="rotate(0.000000,249.000000,54.000000)" style="stroke: black; stroke-width:0.25;"/>
<line x1="246.000000" y1="55.000000" x2="249.000000" y2="54.000000"  transform="rotate(0.000000,249.000000,54.000000)" style="stroke: black; stroke-width:0.25;"/>
<line x1="246.000000" y1="61.000000" x2="249.000000" y2="62.000000"  transform="rotate(0.000000,249.000000,62.000000)" style="stroke: black; stroke-width:0.25;"/>
<line x1="246.000000" y1="63.000000" x2="249.000000" y2="62.000000"  transform="rotate(0.000000,249.000000,62.000000)" style="stroke: black; stroke-width:0.25;"/>
<rect x="306.000000" y="46.000000" width="38.700000" height="24.000000" rx="0" ry="0" style="stroke:#000000;fill:#FFFFFF;"/>
<text x="325.350000" y="60.000000" font-family="Verdana" font-size="7" text-anchor="middle" fill="#000000">[1] PM1</text>
<circle cx="308.000000" cy="48.000000" r="1"/>
<rect x="360.700000" y="42.000000" width="24.000000" height="24.000000" rx="0" ry="0" style="stroke:#000000;fill:#FFFFFF;"/>
<text x="372.700000" y="56.000000" font-family="Verdana" font-size="7" text-anchor="middle" fill="#000000">+</text>
<circle cx="362.700000" cy="44.000000" r="1"/>
<line x1="357.700000" y1="49.000000" x2="360.700000" y2="50.000000"  transform="rotate(0.000000,360.700000,50.000000)" style="stroke: black; stroke-width:0.25;"/>
<line x1="357.700000" y1="51.000000" x2="360.700000" y2="50.000000"  transform="rotate(0.000000,360.700000,50.000000)" style="stroke: black; stroke-width:0.25;"/>
<line x1="357.700000" y1="57.000000" x2="360.700000" y2="58.000000"  transform="rotate(0.000000,360.700000,58.000000)" style="stroke: black; stroke-width:0.25;"/>
<line x1="357.700000" y1="59.000000" x2="360.700000" y2="58.000000"  transform="rotate(0.000000,360.700000,58.000000)" style="stroke: black; stroke-width:0.25;"/>
<rect x="410.700000" y="42.000000" width="38.700000" height="24.000000" rx="0" ry="0" style="stroke:#000000;fill:#FFFFFF;"/>
<text x="430.050000" y="56.000000" font-family="Verdana" font-size="7" text-anchor="middle" fill="#000000">[2] PM2</text>
<circle cx="412.700000" cy="44.000000" r="1"/>
<line x1="407.700000" y1="53.000000" x2="410.700000" y2="54.000000"  transform="rotate(0.000000,410.700000,54.000000)" style="stroke: black; stroke-width:0.25;"/>
<line x1="407.700000" y1="55.000000" x2="410.700000" y2="54.000000"  transform="rotate(0.000000,410.700000,54.000000)" style="stroke: black; stroke-width:0.25;"/>
<a xlink:href="apf-0x6000013f59e0.svg">
<rect x="457.400000" y="42.000000" width="103.200000" height="24.000000" rx="0" ry="0" style="stroke:#000000;fill:#FFFFFF;"/>
</a>
<a xlink:href="apf-0x6000013f59e0.svg">
<text x="509.000000" y="56.000000" font-family="Verdana" font-size="7" text-anchor="middle" fill="#000000">apf(1)(0.70710677f)(x2)</text>
</a>
<circle cx="459.400000" cy="44.000000" r="1"/>
<line x1="401.700000" y1="33.000000" x2="401.700000" y2="75.000000"  style="stroke: black; stroke-linecap:round; stroke-width:0.25; stroke-dasharray:3,3;"/>
<line x1="401.700000" y1="75.000000" x2="569.600000" y2="75.000000"  style="stroke: black; stroke-linecap:round; stroke-width:0.25; stroke-dasharray:3,3;"/>
<line x1="569.600000" y1="75.000000" x2="569.600000" y2="33.000000"  style="stroke: black; stroke-linecap:round; stroke-width:0.25; stroke-dasharray:3,3;"/>
<line x1="401.700000" y1="33.000000" x2="406.700000" y2="33.000000"  style="stroke: black; stroke-linecap:round; stroke-width:0.25; stroke-dasharray:3,3;"/>
<line x1="448.625000" y1="33.000000" x2="569.600000" y2="33.000000"  style="stroke: black; stroke-linecap:round; stroke-width:0.25; stroke-dasharray:3,3;"/>
<text x="406.700000" y="35.000000" font-family="Verdana" font-size="7">Abstraction</text>
<a xlink:href="delay-0x6000013f69a0.svg">
<rect x="586.600000" y="42.000000" width="141.900000" height="24.000000" rx="0" ry="0" style="stroke:#000000;fill:#FFFFFF;"/>
</a>
<a xlink:href="delay-0x6000013f69a0.svg">
<text x="657.550000" y="56.000000" font-family="Verdana" font-size="7" text-anchor="middle" fill="#000000">delay(1.92e+0...: max) : min)(0)</text>
</a>
<circle cx="588.600000" cy="44.000000" r="1"/>
<line x1="583.600000" y1="53.000000" x2="586.600000" y2="54.000000"  transform="rotate(0.000000,586.600000,54.000000)" style="stroke: black; stroke-width:0.25;"/>
<line x1="583.600000" y1="55.000000" x2="586.600000" y2="54.000000"  transform="rotate(0.000000,586.600000,54.000000)" style="stroke: black; stroke-width:0.25;"/>
<polygon fill="#ffffff" stroke="black" stroke-width=".25" points="413.600006,20.500000 404.600006,24.000000 413.600006,27.500000"/>
<circle  fill="#ffffff" stroke="black" stroke-width=".25" cx="403.100006" cy="24.000000" r="1.500000"/>
<line x1="730.500000" y1="54.000000" x2="730.500000" y2="50.000000"  style="stroke:black; stroke-linecap:round; stroke-width:0.25;"/>
<line x1="730.500000" y1="50.000000" x2="734.500000" y2="50.000000"  style="stroke:black; stroke-linecap:round; stroke-width:0.25;"/>
<line x1="734.500000" y1="50.000000" x2="734.500000" y2="54.000000"  style="stroke:black; stroke-linecap:round; stroke-width:0.25;"/>
<rect x="760.500000" y="38.000000" width="24.000000" height="24.000000" rx="0" ry="0" style="stroke:#000000;fill:#FFFFFF;"/>
<text x="772.500000" y="52.000000" font-family="Verdana" font-size="7" text-anchor="middle" fill="#000000">mem</text>
<circle cx="762.500000" cy="40.000000" r="1"/>
<line x1="757.500000" y1="49.000000" x2="760.500000" y2="50.000000"  transform="rotate(0.000000,760.500000,50.000000)" style="stroke: black; stroke-width:0.25;"/>
<line x1="757.500000" y1="51.000000" x2="760.500000" y2="50.000000"  transform="rotate(0.000000,760.500000,50.000000)" style="stroke: black; stroke-width:0.25;"/>
<rect x="800.500000" y="42.000000" width="24.000000" height="24.000000" rx="0" ry="0" style="stroke:#000000;fill:#FFFFFF;"/>
<text x="812.500000" y="56.000000" font-family="Verdana" font-size="7" text-anchor="middle" fill="#000000">+</text>
<circle cx="802.500000" cy="44.000000" r="1"/>
<line x1="797.500000" y1="49.000000" x2="800.500000" y2="50.000000"  transform="rotate(0.000000,800.500000,50.000000)" style="stroke: black; stroke-width:0.25;"/>
<line x1="797.500000" y1="51.000000" x2="800.500000" y2="50.000000"  transform="rotate(0.000000,800.500000,50.000000)" style="stroke: black; stroke-width:0.25;"/>
<line x1="797.500000" y1="57.000000" x2="800.500000" y2="58.000000"  transform="rotate(0.000000,800.500000,58.000000)" style="stroke: black; stroke-width:0.25;"/>
<line x1="797.500000" y1="59.000000" x2="800.500000" y2="58.000000"  transform="rotate(0.000000,800.500000,58.000000)" style="stroke: black; stroke-width:0.25;"/>
<line x1="15.000000" y1="15.000000" x2="15.000000" y2="93.000000"  style="stroke: black; stroke-linecap:round; stroke-width:0.25; stroke-dasharray:3,3;"/>
<line x1="15.000000" y1="93.000000" x2="841.500000" y2="93.000000"  style="stroke: black; stroke-linecap:round; stroke-width:0.25; stroke-dasharray:3,3;"/>
<line x1="841.500000" y1="93.000000" x2="841.500000" y2="15.000000"  style="stroke: black; stroke-linecap:round; stroke-width:0.25; stroke-dasharray:3,3;"/>
<line x1="15.000000" y1="15.000000" x2="20.000000" y2="15.000000"  style="stroke: black; stroke-linecap:round; stroke-width:0.25; stroke-dasharray:3,3;"/>
<line x1="49.025000" y1="15.000000" x2="841.500000" y2="15.000000"  style="stroke: black; stroke-linecap:round; stroke-width:0.25; stroke-dasharray:3,3;"/>
<text x="20.000000" y="17.000000" font-family="Verdana" font-size="7">process</text>
<line x1="843.500000" y1="53.000000" x2="846.500000" y2="54.000000"  transform="rotate(0.000000,846.500000,54.000000)" style="stroke: black; stroke-width:0.25;"/>
<line x1="843.500000" y1="55.000000" x2="846.500000" y2="54.000000"  transform="rotate(0.000000,846.500000,54.000000)" style="stroke: black; stroke-width:0.25;"/>
<line x1="10.000000" y1="54.000000" x2="20.000000" y2="54.000000"  style="stroke:black; stroke-linecap:round; stroke-width:0.25;"/>
<line x1="20.000000" y1="54.000000" x2="24.000000" y2="54.000000"  style="stroke:black; stroke-linecap:round; stroke-width:0.25;"/>
<line x1="24.000000" y1="54.000000" x2="28.000000" y2="54.000000"  style="stroke:black; stroke-linecap:round; stroke-width:0.25;"/>
<line x1="28.000000" y1="54.000000" x2="28.000000" y2="54.000000"  style="stroke:black; stroke-linecap:round; stroke-width:0.25;"/>
<line x1="28.000000" y1="54.000000" x2="32.000000" y2="54.000000"  style="stroke:black; stroke-linecap:round; stroke-width:0.25;"/>
<line x1="82.700000" y1="24.000000" x2="82.700000" y2="24.000000"  style="stroke:black; stroke-linecap:round; stroke-width:0.25;"/>
<line x1="82.700000" y1="24.000000" x2="82.700000" y2="74.000000"  style="stroke:black; stroke-linecap:round; stroke-width:0.25;"/>
<line x1="82.700000" y1="74.000000" x2="82.700000" y2="74.000000"  style="stroke:black; stroke-linecap:round; stroke-width:0.25;"/>
<line x1="82.700000" y1="74.000000" x2="106.050000" y2="74.000000"  style="stroke:black; stroke-linecap:round; stroke-width:0.25;"/>
<line x1="106.050000" y1="74.000000" x2="129.400000" y2="74.000000"  style="stroke:black; stroke-linecap:round; stroke-width:0.25;"/>
<line x1="125.400000" y1="54.000000" x2="129.400000" y2="54.000000"  style="stroke:black; stroke-linecap:round; stroke-width:0.25;"/>
<line x1="129.400000" y1="54.000000" x2="137.400000" y2="54.000000"  style="stroke:black; stroke-linecap:round; stroke-width:0.25;"/>
<line x1="129.400000" y1="62.000000" x2="137.400000" y2="62.000000"  style="stroke:black; stroke-linecap:round; stroke-width:0.25;"/>
<line x1="129.400000" y1="74.000000" x2="129.400000" y2="62.000000"  style="stroke:black; stroke-linecap:round; stroke-width:0.25;"/>
<line x1="129.400000" y1="74.000000" x2="129.400000" y2="74.000000"  style="stroke:black; stroke-linecap:round; stroke-width:0.25;"/>
<line x1="137.400000" y1="54.000000" x2="141.400000" y2="54.000000"  style="stroke:black; stroke-linecap:round; stroke-width:0.25;"/>
<line x1="137.400000" y1="62.000000" x2="141.400000" y2="62.000000"  style="stroke:black; stroke-linecap:round; stroke-width:0.25;"/>
<line x1="165.400000" y1="58.000000" x2="169.400000" y2="58.000000"  style="stroke:black; stroke-linecap:round; stroke-width:0.25;"/>
<line x1="169.400000" y1="42.000000" x2="177.400000" y2="42.000000"  style="stroke:black; stroke-linecap:round; stroke-width:0.25;"/>
<line x1="169.400000" y1="58.000000" x2="169.400000" y2="42.000000"  style="stroke:black; stroke-linecap:round; stroke-width:0.25;"/>
<line x1="169.400000" y1="58.000000" x2="169.400000" y2="58.000000"  style="stroke:black; stroke-linecap:round; stroke-width:0.25;"/>
<line x1="177.400000" y1="42.000000" x2="207.200000" y2="42.000000"  style="stroke:black; stroke-linecap:round; stroke-width:0.25;"/>
<line x1="207.200000" y1="42.000000" x2="237.000000" y2="42.000000"  style="stroke:black; stroke-linecap:round; stroke-width:0.25;"/>
<line x1="233.000000" y1="62.000000" x2="237.000000" y2="62.000000"  style="stroke:black; stroke-linecap:round; stroke-width:0.25;"/>
<line x1="237.000000" y1="62.000000" x2="245.000000" y2="62.000000"  style="stroke:black; stroke-linecap:round; stroke-width:0.25;"/>
<line x1="237.000000" y1="42.000000" x2="245.000000" y2="42.000000"  style="stroke:black; stroke-linecap:round; stroke-width:0.25;"/>
<line x1="245.000000" y1="54.000000" x2="249.000000" y2="54.000000"  style="stroke:black; stroke-linecap:round; stroke-width:0.25;"/>
<line x1="245.000000" y1="62.000000" x2="249.000000" y2="62.000000"  style="stroke:black; stroke-linecap:round; stroke-width:0.25;"/>
<line x1="245.000000" y1="42.000000" x2="245.000000" y2="54.000000"  style="stroke:black; stroke-linecap:round; stroke-width:0.25;"/>
<line x1="245.000000" y1="54.000000" x2="245.000000" y2="54.000000"  style="stroke:black; stroke-linecap:round; stroke-width:0.25;"/>
<line x1="273.000000" y1="58.000000" x2="277.000000" y2="58.000000"  style="stroke:black; stroke-linecap:round; stroke-width:0.25;"/>
<line x1="277.000000" y1="58.000000" x2="302.000000" y2="38.000000"  style="stroke:black; stroke-linecap:round; stroke-width:0.25;"/>
<line x1="277.000000" y1="58.000000" x2="302.000000" y2="78.000000"  style="stroke:black; stroke-linecap:round; stroke-width:0.25;"/>
<line x1="302.000000" y1="38.000000" x2="325.350000" y2="38.000000"  style="stroke:black; stroke-linecap:round; stroke-width:0.25;"/>
<line x1="302.000000" y1="78.000000" x2="345.350000" y2="78.000000"  style="stroke:black; stroke-linecap:round; stroke-width:0.25;"/>
<line x1="325.350000" y1="38.000000" x2="348.700000" y2="38.000000"  style="stroke:black; stroke-linecap:round; stroke-width:0.25;"/>
<line x1="344.700000" y1="58.000000" x2="348.700000" y2="58.000000"  style="stroke:black; stroke-linecap:round; stroke-width:0.25;"/>
<line x1="345.350000" y1="78.000000" x2="388.700000" y2="78.000000"  style="stroke:black; stroke-linecap:round; stroke-width:0.25;"/>
<line x1="348.700000" y1="58.000000" x2="356.700000" y2="58.000000"  style="stroke:black; stroke-linecap:round; stroke-width:0.25;"/>
<line x1="348.700000" y1="38.000000" x2="356.700000" y2="38.000000"  style="stroke:black; stroke-linecap:round; stroke-width:0.25;"/>
<line x1="356.700000" y1="50.000000" x2="360.700000" y2="50.000000"  style="stroke:black; stroke-linecap:round; stroke-width:0.25;"/>
<line x1="356.700000" y1="58.000000" x2="360.700000" y2="58.000000"  style="stroke:black; stroke-linecap:round; stroke-width:0.25;"/>
<line x1="356.700000" y1="38.000000" x2="356.700000" y2="50.000000"  style="stroke:black; stroke-linecap:round; stroke-width:0.25;"/>
<line x1="356.700000" y1="50.000000" x2="356.700000" y2="50.000000"  style="stroke:black; stroke-linecap:round; stroke-width:0.25;"/>
<line x1="384.700000" y1="54.000000" x2="388.700000" y2="54.000000"  style="stroke:black; stroke-linecap:round; stroke-width:0.25;"/>
<line x1="388.700000" y1="54.000000" x2="396.700000" y2="54.000000"  style="stroke:black; stroke-linecap:round; stroke-width:0.25;"/>
<line x1="388.700000" y1="78.000000" x2="396.700000" y2="78.000000"  style="stroke:black; stroke-linecap:round; stroke-width:0.25;"/>
<line x1="396.700000" y1="54.000000" x2="406.700000" y2="54.000000"  style="stroke:black; stroke-linecap:round; stroke-width:0.25;"/>
<line x1="396.700000" y1="84.000000" x2="485.650000" y2="84.000000"  style="stroke:black; stroke-linecap:round; stroke-width:0.25;"/>
<line x1="396.700000" y1="78.000000" x2="396.700000" y2="84.000000"  style="stroke:black; stroke-linecap:round; stroke-width:0.25;"/>
<line x1="396.700000" y1="84.000000" x2="396.700000" y2="84.000000"  style="stroke:black; stroke-linecap:round; stroke-width:0.25;"/>
<line x1="397.600000" y1="24.000000" x2="82.700000" y2="24.000000"  style="stroke:black; stroke-linecap:round; stroke-width:0.25;"/>
<line x1="401.600000" y1="24.000000" x2="397.600000" y2="24.000000"  style="stroke:black; stroke-linecap:round; stroke-width:0.25;"/>
<line x1="406.700000" y1="54.000000" x2="410.700000" y2="54.000000"  style="stroke:black; stroke-linecap:round; stroke-width:0.25;"/>
<line x1="417.600000" y1="24.000000" x2="413.600000" y2="24.000000"  style="stroke:black; stroke-linecap:round; stroke-width:0.25;"/>
<line x1="485.650000" y1="84.000000" x2="574.600000" y2="84.000000"  style="stroke:black; stroke-linecap:round; stroke-width:0.25;"/>
<line x1="560.600000" y1="54.000000" x2="564.600000" y2="54.000000"  style="stroke:black; stroke-linecap:round; stroke-width:0.25;"/>
<line x1="564.600000" y1="54.000000" x2="574.600000" y2="54.000000"  style="stroke:black; stroke-linecap:round; stroke-width:0.25;"/>
<line x1="574.600000" y1="54.000000" x2="582.600000" y2="54.000000"  style="stroke:black; stroke-linecap:round; stroke-width:0.25;"/>
<line x1="574.600000" y1="74.000000" x2="582.600000" y2="74.000000"  style="stroke:black; stroke-linecap:round; stroke-width:0.25;"/>
<line x1="574.600000" y1="84.000000" x2="574.600000" y2="74.000000"  style="stroke:black; stroke-linecap:round; stroke-width:0.25;"/>
<line x1="574.600000" y1="84.000000" x2="574.600000" y2="84.000000"  style="stroke:black; stroke-linecap:round; stroke-width:0.25;"/>
<line x1="582.600000" y1="54.000000" x2="586.600000" y2="54.000000"  style="stroke:black; stroke-linecap:round; stroke-width:0.25;"/>
<line x1="582.600000" y1="74.000000" x2="657.550000" y2="74.000000"  style="stroke:black; stroke-linecap:round; stroke-width:0.25;"/>
<line x1="657.550000" y1="74.000000" x2="732.500000" y2="74.000000"  style="stroke:black; stroke-linecap:round; stroke-width:0.25;"/>
<line x1="728.500000" y1="54.000000" x2="732.500000" y2="54.000000"  style="stroke:black; stroke-linecap:round; stroke-width:0.25;"/>
<line x1="732.500000" y1="24.000000" x2="732.500000" y2="24.000000"  style="stroke:black; stroke-linecap:round; stroke-width:0.25;"/>
<line x1="732.500000" y1="50.000000" x2="732.500000" y2="24.000000"  style="stroke:black; stroke-linecap:round; stroke-width:0.25;"/>
<line x1="732.500000" y1="54.000000" x2="734.500000" y2="54.000000"  style="stroke:black; stroke-linecap:round; stroke-width:0.25;"/>
<line x1="732.500000" y1="24.000000" x2="417.600000" y2="24.000000"  style="stroke:black; stroke-linecap:round; stroke-width:0.25;"/>
<line x1="732.500000" y1="74.000000" x2="740.500000" y2="74.000000"  style="stroke:black; stroke-linecap:round; stroke-width:0.25;"/>
<line x1="734.500000" y1="54.000000" x2="740.500000" y2="54.000000"  style="stroke:black; stroke-linecap:round; stroke-width:0.25;"/>
<line x1="740.500000" y1="50.000000" x2="756.500000" y2="50.000000"  style="stroke:black; stroke-linecap:round; stroke-width:0.25;"/>
<line x1="740.500000" y1="54.000000" x2="740.500000" y2="50.000000"  style="stroke:black; stroke-linecap:round; stroke-width:0.25;"/>
<line x1="740.500000" y1="54.000000" x2="740.500000" y2="54.000000"  style="stroke:black; stroke-linecap:round; stroke-width:0.25;"/>
<line x1="740.500000" y1="74.000000" x2="748.500000" y2="74.000000"  style="stroke:black; stroke-linecap:round; stroke-width:0.25;"/>
<line x1="748.500000" y1="70.000000" x2="756.500000" y2="70.000000"  style="stroke:black; stroke-linecap:round; stroke-width:0.25;"/>
<line x1="748.500000" y1="74.000000" x2="748.500000" y2="70.000000"  style="stroke:black; stroke-linecap:round; stroke-width:0.25;"/>
<line x1="756.500000" y1="50.000000" x2="760.500000" y2="50.000000"  style="stroke:black; stroke-linecap:round; stroke-width:0.25;"/>
<line x1="756.500000" y1="70.000000" x2="772.500000" y2="70.000000"  style="stroke:black; stroke-linecap:round; stroke-width:0.25;"/>
<line x1="772.500000" y1="70.000000" x2="788.500000" y2="70.000000"  style="stroke:black; stroke-linecap:round; stroke-width:0.25;"/>
<line x1="784.500000" y1="50.000000" x2="788.500000" y2="50.000000"  style="stroke:black; stroke-linecap:round; stroke-width:0.25;"/>
<line x1="788.500000" y1="50.000000" x2="796.500000" y2="50.000000"  style="stroke:black; stroke-linecap:round; stroke-width:0.25;"/>
<line x1="788.500000" y1="58.000000" x2="796.500000" y2="58.000000"  style="stroke:black; stroke-linecap:round; stroke-width:0.25;"/>
<line x1="788.500000" y1="70.000000" x2="788.500000" y2="58.000000"  style="stroke:black; stroke-linecap:round; stroke-width:0.25;"/>
<line x1="788.500000" y1="70.000000" x2="788.500000" y2="70.000000"  style="stroke:black; stroke-linecap:round; stroke-width:0.25;"/>
<line x1="796.500000" y1="50.000000" x2="800.500000" y2="50.000000"  style="stroke:black; stroke-linecap:round; stroke-width:0.25;"/>
<line x1="796.500000" y1="58.000000" x2="800.500000" y2="58.000000"  style="stroke:black; stroke-linecap:round; stroke-width:0.25;"/>
<line x1="824.500000" y1="54.000000" x2="828.500000" y2="54.000000"  style="stroke:black; stroke-linecap:round; stroke-width:0.25;"/>
<line x1="828.500000" y1="54.000000" x2="828.500000" y2="54.000000"  style="stroke:black; stroke-linecap:round; stroke-width:0.25;"/>
<line x1="828.500000" y1="54.000000" x2="832.500000" y2="54.000000"  style="stroke:black; stroke-linecap:round; stroke-width:0.25;"/>
<line x1="832.500000" y1="54.000000" x2="836.500000" y2="54.000000"  style="stroke:black; stroke-linecap:round; stroke-width:0.25;"/>
<line x1="836.500000" y1="54.000000" x2="846.500000" y2="54.000000"  style="stroke:black; stroke-linecap:round; stroke-width:0.25;"/>
</svg>
