<?xml version="1.0"?>
<svg xmlns="http://www.w3.org/2000/svg" xmlns:xlink="http://www.w3.org/1999/xlink" viewBox="0 0 319.800000 120.000000" width="159.900000mm" height="60.000000mm" version="1.1">
<a xlink:href="process.svg">
<rect x="0.000000" y="0.000000" width="318.800000" height="119.000000" rx="0" ry="0" style="stroke:#000000;fill:#FFFFFF;"/>
</a>
<text x="10.000000" y="7.000000" font-family="Verdana" font-size="7"></text>
<rect x="40.000000" y="52.000000" width="25.800000" height="24.000000" rx="0" ry="0" style="stroke:#000000;fill:#FFFFFF;"/>
<text x="52.900000" y="66.000000" font-family="Verdana" font-size="7" text-anchor="middle" fill="#000000">0.24f</text>
<circle cx="42.000000" cy="54.000000" r="1"/>
<rect x="81.800000" y="48.000000" width="24.000000" height="24.000000" rx="0" ry="0" style="stroke:#000000;fill:#FFFFFF;"/>
<text x="93.800000" y="62.000000" font-family="Verdana" font-size="7" text-anchor="middle" fill="#000000">*</text>
<circle cx="83.800000" cy="50.000000" r="1"/>
<line x1="78.800000" y1="55.000000" x2="81.800000" y2="56.000000"  transform="rotate(0.000000,81.800000,56.000000)" style="stroke: black; stroke-width:0.25;"/>
<line x1="78.800000" y1="57.000000" x2="81.800000" y2="56.000000"  transform="rotate(0.000000,81.800000,56.000000)" style="stroke: black; stroke-width:0.25;"/>
<line x1="78.800000" y1="63.000000" x2="81.800000" y2="64.000000"  transform="rotate(0.000000,81.800000,64.000000)" style="stroke: black; stroke-width:0.25;"/>
<line x1="78.800000" y1="65.000000" x2="81.800000" y2="64.000000"  transform="rotate(0.000000,81.800000,64.000000)" style="stroke: black; stroke-width:0.25;"/>
<rect x="143.800000" y="32.000000" width="24.000000" height="24.000000" rx="0" ry="0" style="stroke:#000000;fill:#FFFFFF;"/>
<text x="155.800000" y="46.000000" font-family="Verdana" font-size="7" text-anchor="middle" fill="#000000">1</text>
<circle cx="145.800000" cy="34.000000" r="1"/>
<rect x="183.800000" y="28.000000" width="24.000000" height="24.000000" rx="0" ry="0" style="stroke:#000000;fill:#FFFFFF;"/>
<text x="195.800000" y="42.000000" font-family="Verdana" font-size="7" text-anchor="middle" fill="#000000">@</text>
<circle cx="185.800000" cy="30.000000" r="1"/>
<line x1="180.800000" y1="35.000000" x2="183.800000" y2="36.000000"  transform="rotate(0.000000,183.800000,36.000000)" style="stroke: black; stroke-width:0.25;"/>
<line x1="180.800000" y1="37.000000" x2="183.800000" y2="36.000000"  transform="rotate(0.000000,183.800000,36.000000)" style="stroke: black; stroke-width:0.25;"/>
<line x1="180.800000" y1="43.000000" x2="183.800000" y2="44.000000"  transform="rotate(0.000000,183.800000,44.000000)" style="stroke: black; stroke-width:0.25;"/>
<line x1="180.800000" y1="45.000000" x2="183.800000" y2="44.000000"  transform="rotate(0.000000,183.800000,44.000000)" style="stroke: black; stroke-width:0.25;"/>
<rect x="162.900000" y="64.000000" width="25.800000" height="24.000000" rx="0" ry="0" style="stroke:#000000;fill:#FFFFFF;"/>
<text x="175.800000" y="78.000000" font-family="Verdana" font-size="7" text-anchor="middle" fill="#000000">0.76f</text>
<circle cx="164.900000" cy="66.000000" r="1"/>
<rect x="223.800000" y="44.000000" width="24.000000" height="24.000000" rx="0" ry="0" style="stroke:#000000;fill:#FFFFFF;"/>
<text x="235.800000" y="58.000000" font-family="Verdana" font-size="7" text-anchor="middle" fill="#000000">*</text>
<circle cx="225.800000" cy="46.000000" r="1"/>
<line x1="220.800000" y1="51.000000" x2="223.800000" y2="52.000000"  transform="rotate(0.000000,223.800000,52.000000)" style="stroke: black; stroke-width:0.25;"/>
<line x1="220.800000" y1="53.000000" x2="223.800000" y2="52.000000"  transform="rotate(0.000000,223.800000,52.000000)" style="stroke: black; stroke-width:0.25;"/>
<line x1="220.800000" y1="59.000000" x2="223.800000" y2="60.000000"  transform="rotate(0.000000,223.800000,60.000000)" style="stroke: black; stroke-width:0.25;"/>
<line x1="220.800000" y1="61.000000" x2="223.800000" y2="60.000000"  transform="rotate(0.000000,223.800000,60.000000)" style="stroke: black; stroke-width:0.25;"/>
<rect x="263.800000" y="48.000000" width="24.000000" height="24.000000" rx="0" ry="0" style="stroke:#000000;fill:#FFFFFF;"/>
<text x="275.800000" y="62.000000" font-family="Verdana" font-size="7" text-anchor="middle" fill="#000000">+</text>
<circle cx="265.800000" cy="50.000000" r="1"/>
<line x1="260.800000" y1="55.000000" x2="263.800000" y2="56.000000"  transform="rotate(0.000000,263.800000,56.000000)" style="stroke: black; stroke-width:0.25;"/>
<line x1="260.800000" y1="57.000000" x2="263.800000" y2="56.000000"  transform="rotate(0.000000,263.800000,56.000000)" style="stroke: black; stroke-width:0.25;"/>
<line x1="260.800000" y1="63.000000" x2="263.800000" y2="64.000000"  transform="rotate(0.000000,263.800000,64.000000)" style="stroke: black; stroke-width:0.25;"/>
<line x1="260.800000" y1="65.000000" x2="263.800000" y2="64.000000"  transform="rotate(0.000000,263.800000,64.000000)" style="stroke: black; stroke-width:0.25;"/>
<line x1="15.000000" y1="15.000000" x2="15.000000" y2="105.000000"  style="stroke: black; stroke-linecap:round; stroke-width:0.25; stroke-dasharray:3,3;"/>
<line x1="15.000000" y1="105.000000" x2="304.800000" y2="105.000000"  style="stroke: black; stroke-linecap:round; stroke-width:0.25; stroke-dasharray:3,3;"/>
<line x1="304.800000" y1="105.000000" x2="304.800000" y2="15.000000"  style="stroke: black; stroke-linecap:round; stroke-width:0.25; stroke-dasharray:3,3;"/>
<line x1="15.000000" y1="15.000000" x2="20.000000" y2="15.000000"  style="stroke: black; stroke-linecap:round; stroke-width:0.25; stroke-dasharray:3,3;"/>
<line x1="58.700000" y1="15.000000" x2="304.800000" y2="15.000000"  style="stroke: black; stroke-linecap:round; stroke-width:0.25; stroke-dasharray:3,3;"/>
<text x="20.000000" y="17.000000" font-family="Verdana" font-size="7">fir(0.76f)</text>
<line x1="306.800000" y1="59.000000" x2="309.800000" y2="60.000000"  transform="rotate(0.000000,309.800000,60.000000)" style="stroke: black; stroke-width:0.25;"/>
<line x1="306.800000" y1="61.000000" x2="309.800000" y2="60.000000"  transform="rotate(0.000000,309.800000,60.000000)" style="stroke: black; stroke-width:0.25;"/>
<line x1="10.000000" y1="60.000000" x2="20.000000" y2="60.000000"  style="stroke:black; stroke-linecap:round; stroke-width:0.25;"/>
<line x1="20.000000" y1="60.000000" x2="24.000000" y2="60.000000"  style="stroke:black; stroke-linecap:round; stroke-width:0.25;"/>
<line x1="24.000000" y1="60.000000" x2="28.000000" y2="60.000000"  style="stroke:black; stroke-linecap:round; stroke-width:0.25;"/>
<line x1="28.000000" y1="44.000000" x2="36.000000" y2="44.000000"  style="stroke:black; stroke-linecap:round; stroke-width:0.25;"/>
<line x1="28.000000" y1="60.000000" x2="28.000000" y2="44.000000"  style="stroke:black; stroke-linecap:round; stroke-width:0.25;"/>
<line x1="28.000000" y1="60.000000" x2="28.000000" y2="60.000000"  style="stroke:black; stroke-linecap:round; stroke-width:0.25;"/>
<line x1="36.000000" y1="44.000000" x2="52.900000" y2="44.000000"  style="stroke:black; stroke-linecap:round; stroke-width:0.25;"/>
<line x1="52.900000" y1="44.000000" x2="69.800000" y2="44.000000"  style="stroke:black; stroke-linecap:round; stroke-width:0.25;"/>
<line x1="65.800000" y1="64.000000" x2="69.800000" y2="64.000000"  style="stroke:black; stroke-linecap:round; stroke-width:0.25;"/>
<line x1="69.800000" y1="44.000000" x2="77.800000" y2="44.000000"  style="stroke:black; stroke-linecap:round; stroke-width:0.25;"/>
<line x1="69.800000" y1="64.000000" x2="77.800000" y2="64.000000"  style="stroke:black; stroke-linecap:round; stroke-width:0.25;"/>
<line x1="77.800000" y1="44.000000" x2="77.800000" y2="56.000000"  style="stroke:black; stroke-linecap:round; stroke-width:0.25;"/>
<line x1="77.800000" y1="56.000000" x2="77.800000" y2="56.000000"  style="stroke:black; stroke-linecap:round; stroke-width:0.25;"/>
<line x1="77.800000" y1="56.000000" x2="81.800000" y2="56.000000"  style="stroke:black; stroke-linecap:round; stroke-width:0.25;"/>
<line x1="77.800000" y1="64.000000" x2="81.800000" y2="64.000000"  style="stroke:black; stroke-linecap:round; stroke-width:0.25;"/>
<line x1="105.800000" y1="60.000000" x2="109.800000" y2="60.000000"  style="stroke:black; stroke-linecap:round; stroke-width:0.25;"/>
<line x1="109.800000" y1="60.000000" x2="139.800000" y2="24.000000"  style="stroke:black; stroke-linecap:round; stroke-width:0.25;"/>
<line x1="109.800000" y1="60.000000" x2="139.800000" y2="96.000000"  style="stroke:black; stroke-linecap:round; stroke-width:0.25;"/>
<line x1="139.800000" y1="24.000000" x2="155.800000" y2="24.000000"  style="stroke:black; stroke-linecap:round; stroke-width:0.25;"/>
<line x1="139.800000" y1="96.000000" x2="195.800000" y2="96.000000"  style="stroke:black; stroke-linecap:round; stroke-width:0.25;"/>
<line x1="155.800000" y1="24.000000" x2="171.800000" y2="24.000000"  style="stroke:black; stroke-linecap:round; stroke-width:0.25;"/>
<line x1="167.800000" y1="44.000000" x2="171.800000" y2="44.000000"  style="stroke:black; stroke-linecap:round; stroke-width:0.25;"/>
<line x1="171.800000" y1="24.000000" x2="179.800000" y2="24.000000"  style="stroke:black; stroke-linecap:round; stroke-width:0.25;"/>
<line x1="171.800000" y1="44.000000" x2="179.800000" y2="44.000000"  style="stroke:black; stroke-linecap:round; stroke-width:0.25;"/>
<line x1="179.800000" y1="24.000000" x2="179.800000" y2="36.000000"  style="stroke:black; stroke-linecap:round; stroke-width:0.25;"/>
<line x1="179.800000" y1="36.000000" x2="179.800000" y2="36.000000"  style="stroke:black; stroke-linecap:round; stroke-width:0.25;"/>
<line x1="179.800000" y1="36.000000" x2="183.800000" y2="36.000000"  style="stroke:black; stroke-linecap:round; stroke-width:0.25;"/>
<line x1="179.800000" y1="44.000000" x2="183.800000" y2="44.000000"  style="stroke:black; stroke-linecap:round; stroke-width:0.25;"/>
<line x1="188.700000" y1="76.000000" x2="192.700000" y2="76.000000"  style="stroke:black; stroke-linecap:round; stroke-width:0.25;"/>
<line x1="192.700000" y1="76.000000" x2="211.800000" y2="76.000000"  style="stroke:black; stroke-linecap:round; stroke-width:0.25;"/>
<line x1="195.800000" y1="96.000000" x2="251.800000" y2="96.000000"  style="stroke:black; stroke-linecap:round; stroke-width:0.25;"/>
<line x1="207.800000" y1="40.000000" x2="211.800000" y2="40.000000"  style="stroke:black; stroke-linecap:round; stroke-width:0.25;"/>
<line x1="211.800000" y1="60.000000" x2="219.800000" y2="60.000000"  style="stroke:black; stroke-linecap:round; stroke-width:0.25;"/>
<line x1="211.800000" y1="76.000000" x2="211.800000" y2="60.000000"  style="stroke:black; stroke-linecap:round; stroke-width:0.25;"/>
<line x1="211.800000" y1="76.000000" x2="211.800000" y2="76.000000"  style="stroke:black; stroke-linecap:round; stroke-width:0.25;"/>
<line x1="211.800000" y1="40.000000" x2="219.800000" y2="40.000000"  style="stroke:black; stroke-linecap:round; stroke-width:0.25;"/>
<line x1="219.800000" y1="40.000000" x2="219.800000" y2="52.000000"  style="stroke:black; stroke-linecap:round; stroke-width:0.25;"/>
<line x1="219.800000" y1="52.000000" x2="219.800000" y2="52.000000"  style="stroke:black; stroke-linecap:round; stroke-width:0.25;"/>
<line x1="219.800000" y1="52.000000" x2="223.800000" y2="52.000000"  style="stroke:black; stroke-linecap:round; stroke-width:0.25;"/>
<line x1="219.800000" y1="60.000000" x2="223.800000" y2="60.000000"  style="stroke:black; stroke-linecap:round; stroke-width:0.25;"/>
<line x1="247.800000" y1="56.000000" x2="251.800000" y2="56.000000"  style="stroke:black; stroke-linecap:round; stroke-width:0.25;"/>
<line x1="251.800000" y1="56.000000" x2="259.800000" y2="56.000000"  style="stroke:black; stroke-linecap:round; stroke-width:0.25;"/>
<line x1="251.800000" y1="64.000000" x2="259.800000" y2="64.000000"  style="stroke:black; stroke-linecap:round; stroke-width:0.25;"/>
<line x1="251.800000" y1="96.000000" x2="251.800000" y2="64.000000"  style="stroke:black; stroke-linecap:round; stroke-width:0.25;"/>
<line x1="251.800000" y1="96.000000" x2="251.800000" y2="96.000000"  style="stroke:black; stroke-linecap:round; stroke-width:0.25;"/>
<line x1="259.800000" y1="56.000000" x2="263.800000" y2="56.000000"  style="stroke:black; stroke-linecap:round; stroke-width:0.25;"/>
<line x1="259.800000" y1="64.000000" x2="263.800000" y2="64.000000"  style="stroke:black; stroke-linecap:round; stroke-width:0.25;"/>
<line x1="287.800000" y1="60.000000" x2="291.800000" y2="60.000000"  style="stroke:black; stroke-linecap:round; stroke-width:0.25;"/>
<line x1="291.800000" y1="60.000000" x2="291.800000" y2="60.000000"  style="stroke:black; stroke-linecap:round; stroke-width:0.25;"/>
<line x1="291.800000" y1="60.000000" x2="295.800000" y2="60.000000"  style="stroke:black; stroke-linecap:round; stroke-width:0.25;"/>
<line x1="295.800000" y1="60.000000" x2="299.800000" y2="60.000000"  style="stroke:black; stroke-linecap:round; stroke-width:0.25;"/>
<line x1="299.800000" y1="60.000000" x2="309.800000" y2="60.000000"  style="stroke:black; stroke-linecap:round; stroke-width:0.25;"/>
</svg>
