<?xml version="1.0"?>
<svg xmlns="http://www.w3.org/2000/svg" xmlns:xlink="http://www.w3.org/1999/xlink" viewBox="0 0 301.900000 156.000000" width="150.950000mm" height="78.000000mm" version="1.1">
<rect x="0.000000" y="0.000000" width="300.900000" height="155.000000" rx="0" ry="0" style="stroke:#000000;fill:#FFFFFF;"/>
<text x="10.000000" y="7.000000" font-family="Verdana" font-size="7"></text>
<rect x="48.000000" y="108.000000" width="24.000000" height="24.000000" rx="0" ry="0" style="stroke:#000000;fill:#FFFFFF;"/>
<text x="60.000000" y="122.000000" font-family="Verdana" font-size="7" text-anchor="middle" fill="#000000">+</text>
<circle cx="50.000000" cy="110.000000" r="1"/>
<line x1="45.000000" y1="115.000000" x2="48.000000" y2="116.000000"  transform="rotate(0.000000,48.000000,116.000000)" style="stroke: black; stroke-width:0.25;"/>
<line x1="45.000000" y1="117.000000" x2="48.000000" y2="116.000000"  transform="rotate(0.000000,48.000000,116.000000)" style="stroke: black; stroke-width:0.25;"/>
<line x1="45.000000" y1="123.000000" x2="48.000000" y2="124.000000"  transform="rotate(0.000000,48.000000,124.000000)" style="stroke: black; stroke-width:0.25;"/>
<line x1="45.000000" y1="125.000000" x2="48.000000" y2="124.000000"  transform="rotate(0.000000,48.000000,124.000000)" style="stroke: black; stroke-width:0.25;"/>
<a xlink:href="delay-0x600002d20240.svg">
<rect x="80.000000" y="108.000000" width="141.900000" height="24.000000" rx="0" ry="0" style="stroke:#000000;fill:#FFFFFF;"/>
</a>
<a xlink:href="delay-0x600002d20240.svg">
<text x="150.950000" y="122.000000" font-family="Verdana" font-size="7" text-anchor="middle" fill="#000000">delay(1.92e+0...: max) : min)(0)</text>
</a>
<circle cx="82.000000" cy="110.000000" r="1"/>
<line x1="77.000000" y1="119.000000" x2="80.000000" y2="120.000000"  transform="rotate(0.000000,80.000000,120.000000)" style="stroke: black; stroke-width:0.25;"/>
<line x1="77.000000" y1="121.000000" x2="80.000000" y2="120.000000"  transform="rotate(0.000000,80.000000,120.000000)" style="stroke: black; stroke-width:0.25;"/>
<a xlink:href="fir-0x600002d25290.svg">
<rect x="129.150000" y="76.000000" width="51.600000" height="24.000000" rx="0" ry="0" style="stroke:#000000;fill:#FFFFFF;"/>
</a>
<a xlink:href="fir-0x600002d25290.svg">
<text x="154.950000" y="90.000000" font-family="Verdana" font-size="7" text-anchor="middle" fill="#000000">fir(0.76f)</text>
</a>
<circle cx="178.750000" cy="98.000000" r="1"/>
<line x1="183.750000" y1="87.000000" x2="180.750000" y2="88.000000"  transform="rotate(0.000000,180.750000,88.000000)" style="stroke: black; stroke-width:0.25;"/>
<line x1="183.750000" y1="89.000000" x2="180.750000" y2="88.000000"  transform="rotate(0.000000,180.750000,88.000000)" style="stroke: black; stroke-width:0.25;"/>
<rect x="129.150000" y="34.000000" width="51.600000" height="24.000000" rx="0" ry="0" style="stroke:#000000;fill:#FFFFFF;"/>
<text x="154.950000" y="48.000000" font-family="Verdana" font-size="7" text-anchor="middle" fill="#000000">0.16970563f</text>
<circle cx="178.750000" cy="56.000000" r="1"/>
<line x1="120.150000" y1="25.000000" x2="120.150000" y2="67.000000"  style="stroke: black; stroke-linecap:round; stroke-width:0.25; stroke-dasharray:3,3;"/>
<line x1="120.150000" y1="67.000000" x2="189.750000" y2="67.000000"  style="stroke: black; stroke-linecap:round; stroke-width:0.25; stroke-dasharray:3,3;"/>
<line x1="189.750000" y1="67.000000" x2="189.750000" y2="25.000000"  style="stroke: black; stroke-linecap:round; stroke-width:0.25; stroke-dasharray:3,3;"/>
<line x1="120.150000" y1="25.000000" x2="125.150000" y2="25.000000"  style="stroke: black; stroke-linecap:round; stroke-width:0.25; stroke-dasharray:3,3;"/>
<line x1="189.750000" y1="25.000000" x2="189.750000" y2="25.000000"  style="stroke: black; stroke-linecap:round; stroke-width:0.25; stroke-dasharray:3,3;"/>
<text x="125.150000" y="27.000000" font-family="Verdana" font-size="7">g2(0.70710677f)(0.76f)</text>
<rect x="79.150000" y="50.000000" width="24.000000" height="24.000000" rx="0" ry="0" style="stroke:#000000;fill:#FFFFFF;"/>
<text x="91.150000" y="64.000000" font-family="Verdana" font-size="7" text-anchor="middle" fill="#000000">*</text>
<circle cx="101.150000" cy="72.000000" r="1"/>
<line x1="106.150000" y1="65.000000" x2="103.150000" y2="66.000000"  transform="rotate(0.000000,103.150000,66.000000)" style="stroke: black; stroke-width:0.25;"/>
<line x1="106.150000" y1="67.000000" x2="103.150000" y2="66.000000"  transform="rotate(0.000000,103.150000,66.000000)" style="stroke: black; stroke-width:0.25;"/>
<line x1="106.150000" y1="57.000000" x2="103.150000" y2="58.000000"  transform="rotate(0.000000,103.150000,58.000000)" style="stroke: black; stroke-width:0.25;"/>
<line x1="106.150000" y1="59.000000" x2="103.150000" y2="58.000000"  transform="rotate(0.000000,103.150000,58.000000)" style="stroke: black; stroke-width:0.25;"/>
<line x1="223.900000" y1="120.000000" x2="223.900000" y2="116.000000"  style="stroke:black; stroke-linecap:round; stroke-width:0.25;"/>
<line x1="223.900000" y1="116.000000" x2="227.900000" y2="116.000000"  style="stroke:black; stroke-linecap:round; stroke-width:0.25;"/>
<line x1="227.900000" y1="116.000000" x2="227.900000" y2="120.000000"  style="stroke:black; stroke-linecap:round; stroke-width:0.25;"/>
<rect x="245.900000" y="66.000000" width="24.000000" height="24.000000" rx="0" ry="0" style="stroke:#000000;fill:#FFFFFF;"/>
<text x="257.900000" y="80.000000" font-family="Verdana" font-size="7" text-anchor="middle" fill="#000000">mem</text>
<circle cx="247.900000" cy="68.000000" r="1"/>
<line x1="242.900000" y1="77.000000" x2="245.900000" y2="78.000000"  transform="rotate(0.000000,245.900000,78.000000)" style="stroke: black; stroke-width:0.25;"/>
<line x1="242.900000" y1="79.000000" x2="245.900000" y2="78.000000"  transform="rotate(0.000000,245.900000,78.000000)" style="stroke: black; stroke-width:0.25;"/>
<line x1="15.000000" y1="15.000000" x2="15.000000" y2="141.000000"  style="stroke: black; stroke-linecap:round; stroke-width:0.25; stroke-dasharray:3,3;"/>
<line x1="15.000000" y1="141.000000" x2="286.900000" y2="141.000000"  style="stroke: black; stroke-linecap:round; stroke-width:0.25; stroke-dasharray:3,3;"/>
<line x1="286.900000" y1="141.000000" x2="286.900000" y2="15.000000"  style="stroke: black; stroke-linecap:round; stroke-width:0.25; stroke-dasharray:3,3;"/>
<line x1="15.000000" y1="15.000000" x2="20.000000" y2="15.000000"  style="stroke: black; stroke-linecap:round; stroke-width:0.25; stroke-dasharray:3,3;"/>
<line x1="49.025000" y1="15.000000" x2="286.900000" y2="15.000000"  style="stroke: black; stroke-linecap:round; stroke-width:0.25; stroke-dasharray:3,3;"/>
<text x="20.000000" y="17.000000" font-family="Verdana" font-size="7">process</text>
<line x1="288.900000" y1="77.000000" x2="291.900000" y2="78.000000"  transform="rotate(0.000000,291.900000,78.000000)" style="stroke: black; stroke-width:0.25;"/>
<line x1="288.900000" y1="79.000000" x2="291.900000" y2="78.000000"  transform="rotate(0.000000,291.900000,78.000000)" style="stroke: black; stroke-width:0.25;"/>
<line x1="10.000000" y1="78.000000" x2="20.000000" y2="78.000000"  style="stroke:black; stroke-linecap:round; stroke-width:0.25;"/>
<line x1="20.000000" y1="78.000000" x2="24.000000" y2="78.000000"  style="stroke:black; stroke-linecap:round; stroke-width:0.25;"/>
<line x1="24.000000" y1="78.000000" x2="28.000000" y2="78.000000"  style="stroke:black; stroke-linecap:round; stroke-width:0.25;"/>
<line x1="28.000000" y1="78.000000" x2="36.000000" y2="78.000000"  style="stroke:black; stroke-linecap:round; stroke-width:0.25;"/>
<line x1="36.000000" y1="78.000000" x2="36.000000" y2="124.000000"  style="stroke:black; stroke-linecap:round; stroke-width:0.25;"/>
<line x1="36.000000" y1="124.000000" x2="36.000000" y2="124.000000"  style="stroke:black; stroke-linecap:round; stroke-width:0.25;"/>
<line x1="36.000000" y1="124.000000" x2="44.000000" y2="124.000000"  style="stroke:black; stroke-linecap:round; stroke-width:0.25;"/>
<line x1="44.000000" y1="62.000000" x2="44.000000" y2="62.000000"  style="stroke:black; stroke-linecap:round; stroke-width:0.25;"/>
<line x1="44.000000" y1="62.000000" x2="44.000000" y2="116.000000"  style="stroke:black; stroke-linecap:round; stroke-width:0.25;"/>
<line x1="44.000000" y1="116.000000" x2="44.000000" y2="116.000000"  style="stroke:black; stroke-linecap:round; stroke-width:0.25;"/>
<line x1="44.000000" y1="116.000000" x2="48.000000" y2="116.000000"  style="stroke:black; stroke-linecap:round; stroke-width:0.25;"/>
<line x1="44.000000" y1="124.000000" x2="48.000000" y2="124.000000"  style="stroke:black; stroke-linecap:round; stroke-width:0.25;"/>
<line x1="72.000000" y1="120.000000" x2="76.000000" y2="120.000000"  style="stroke:black; stroke-linecap:round; stroke-width:0.25;"/>
<line x1="75.150000" y1="62.000000" x2="44.000000" y2="62.000000"  style="stroke:black; stroke-linecap:round; stroke-width:0.25;"/>
<line x1="76.000000" y1="120.000000" x2="76.000000" y2="120.000000"  style="stroke:black; stroke-linecap:round; stroke-width:0.25;"/>
<line x1="76.000000" y1="120.000000" x2="80.000000" y2="120.000000"  style="stroke:black; stroke-linecap:round; stroke-width:0.25;"/>
<line x1="79.150000" y1="62.000000" x2="75.150000" y2="62.000000"  style="stroke:black; stroke-linecap:round; stroke-width:0.25;"/>
<line x1="107.150000" y1="58.000000" x2="103.150000" y2="58.000000"  style="stroke:black; stroke-linecap:round; stroke-width:0.25;"/>
<line x1="107.150000" y1="66.000000" x2="103.150000" y2="66.000000"  style="stroke:black; stroke-linecap:round; stroke-width:0.25;"/>
<line x1="107.150000" y1="66.000000" x2="107.150000" y2="66.000000"  style="stroke:black; stroke-linecap:round; stroke-width:0.25;"/>
<line x1="107.150000" y1="88.000000" x2="107.150000" y2="66.000000"  style="stroke:black; stroke-linecap:round; stroke-width:0.25;"/>
<line x1="115.150000" y1="46.000000" x2="115.150000" y2="46.000000"  style="stroke:black; stroke-linecap:round; stroke-width:0.25;"/>
<line x1="115.150000" y1="46.000000" x2="115.150000" y2="58.000000"  style="stroke:black; stroke-linecap:round; stroke-width:0.25;"/>
<line x1="115.150000" y1="58.000000" x2="107.150000" y2="58.000000"  style="stroke:black; stroke-linecap:round; stroke-width:0.25;"/>
<line x1="115.150000" y1="88.000000" x2="107.150000" y2="88.000000"  style="stroke:black; stroke-linecap:round; stroke-width:0.25;"/>
<line x1="125.150000" y1="46.000000" x2="115.150000" y2="46.000000"  style="stroke:black; stroke-linecap:round; stroke-width:0.25;"/>
<line x1="125.150000" y1="88.000000" x2="115.150000" y2="88.000000"  style="stroke:black; stroke-linecap:round; stroke-width:0.25;"/>
<line x1="129.150000" y1="46.000000" x2="125.150000" y2="46.000000"  style="stroke:black; stroke-linecap:round; stroke-width:0.25;"/>
<line x1="129.150000" y1="88.000000" x2="125.150000" y2="88.000000"  style="stroke:black; stroke-linecap:round; stroke-width:0.25;"/>
<line x1="184.750000" y1="88.000000" x2="180.750000" y2="88.000000"  style="stroke:black; stroke-linecap:round; stroke-width:0.25;"/>
<line x1="194.750000" y1="88.000000" x2="184.750000" y2="88.000000"  style="stroke:black; stroke-linecap:round; stroke-width:0.25;"/>
<line x1="221.900000" y1="120.000000" x2="225.900000" y2="120.000000"  style="stroke:black; stroke-linecap:round; stroke-width:0.25;"/>
<line x1="225.900000" y1="88.000000" x2="194.750000" y2="88.000000"  style="stroke:black; stroke-linecap:round; stroke-width:0.25;"/>
<line x1="225.900000" y1="88.000000" x2="225.900000" y2="88.000000"  style="stroke:black; stroke-linecap:round; stroke-width:0.25;"/>
<line x1="225.900000" y1="116.000000" x2="225.900000" y2="88.000000"  style="stroke:black; stroke-linecap:round; stroke-width:0.25;"/>
<line x1="225.900000" y1="120.000000" x2="227.900000" y2="120.000000"  style="stroke:black; stroke-linecap:round; stroke-width:0.25;"/>
<line x1="227.900000" y1="120.000000" x2="233.900000" y2="120.000000"  style="stroke:black; stroke-linecap:round; stroke-width:0.25;"/>
<line x1="233.900000" y1="78.000000" x2="241.900000" y2="78.000000"  style="stroke:black; stroke-linecap:round; stroke-width:0.25;"/>
<line x1="233.900000" y1="120.000000" x2="233.900000" y2="78.000000"  style="stroke:black; stroke-linecap:round; stroke-width:0.25;"/>
<line x1="233.900000" y1="120.000000" x2="233.900000" y2="120.000000"  style="stroke:black; stroke-linecap:round; stroke-width:0.25;"/>
<line x1="241.900000" y1="78.000000" x2="245.900000" y2="78.000000"  style="stroke:black; stroke-linecap:round; stroke-width:0.25;"/>
<line x1="269.900000" y1="78.000000" x2="273.900000" y2="78.000000"  style="stroke:black; stroke-linecap:round; stroke-width:0.25;"/>
<line x1="273.900000" y1="78.000000" x2="273.900000" y2="78.000000"  style="stroke:black; stroke-linecap:round; stroke-width:0.25;"/>
<line x1="273.900000" y1="78.000000" x2="277.900000" y2="78.000000"  style="stroke:black; stroke-linecap:round; stroke-width:0.25;"/>
<line x1="277.900000" y1="78.000000" x2="281.900000" y2="78.000000"  style="stroke:black; stroke-linecap:round; stroke-width:0.25;"/>
<line x1="281.900000" y1="78.000000" x2="291.900000" y2="78.000000"  style="stroke:black; stroke-linecap:round; stroke-width:0.25;"/>
</svg>
